<?xml version="1.0" encoding="utf-8"?>
<!-- Generator: Adobe Illustrator 23.0.1, SVG Export Plug-In . SVG Version: 6.00 Build 0)  -->
<!DOCTYPE svg PUBLIC "-//W3C//DTD SVG 1.1//EN" "http://www.w3.org/Graphics/SVG/1.1/DTD/svg11.dtd" [
	<!ENTITY ns_extend "http://ns.adobe.com/Extensibility/1.0/">
	<!ENTITY ns_ai "http://ns.adobe.com/AdobeIllustrator/10.0/">
	<!ENTITY ns_graphs "http://ns.adobe.com/Graphs/1.0/">
	<!ENTITY ns_vars "http://ns.adobe.com/Variables/1.0/">
	<!ENTITY ns_imrep "http://ns.adobe.com/ImageReplacement/1.0/">
	<!ENTITY ns_sfw "http://ns.adobe.com/SaveForWeb/1.0/">
	<!ENTITY ns_custom "http://ns.adobe.com/GenericCustomNamespace/1.0/">
	<!ENTITY ns_adobe_xpath "http://ns.adobe.com/XPath/1.0/">
]>
<svg version="1.1" id="Layer_1" xmlns:x="&ns_extend;" xmlns:i="&ns_ai;" xmlns:graph="&ns_graphs;"
	 xmlns="http://www.w3.org/2000/svg" xmlns:xlink="http://www.w3.org/1999/xlink" x="0px" y="0px" viewBox="0 0 580 400"
	 style="enable-background:new 0 0 580 400;" xml:space="preserve">
<style type="text/css">
	.st0{fill:#F8C962;}
	.st1{fill:#F2D560;}
	.st2{fill:#C4A061;}
	.st3{fill:#B98D53;}
</style>
<metadata  id="svg_140" transform="matrix(0.1571108729352524,0,0,0.1571108729352524,0,0) ">image/svg+xml<sfw  xmlns="&ns_sfw;">
	<slices></slices>
	<sliceSourceBounds  bottomLeftOrigin="true" height="345" width="345" x="117.5" y="27.5"></sliceSourceBounds>
</sfw>
</metadata>
<title>Layer 1</title>
<g>
	<path class="st0" d="M290,36.5c-90.2,0-163.5,73.3-163.5,163.5S199.8,363.5,290,363.5S453.5,290.2,453.5,200S380.2,36.5,290,36.5z
		 M290,330.5c-72,0-130.5-58.5-130.5-130.5S218,69.5,290,69.5S420.5,128,420.5,200S362,330.5,290,330.5z"/>
	<path class="st1" d="M290,27.5c-95.1,0-172.5,77.4-172.5,172.5c0,95.1,77.4,172.5,172.5,172.5c95.1,0,172.5-77.4,172.5-172.5
		C462.5,104.9,385.1,27.5,290,27.5z M290,368c-92.8,0-168-75.2-168-168S197.2,32,290,32s168,75.2,168,168S382.8,368,290,368z"/>
	<path class="st1" d="M290,32c-92.8,0-168,75.2-168,168s75.2,168,168,168s168-75.2,168-168S382.8,32,290,32z M290,363.5
		c-90.2,0-163.5-73.3-163.5-163.5S199.8,36.5,290,36.5S453.5,109.8,453.5,200S380.2,363.5,290,363.5z"/>
	<path class="st2" d="M290,78.5c-67,0-121.5,54.5-121.5,121.5S223,321.5,290,321.5S411.5,267,411.5,200S357,78.5,290,78.5z
		 M314.3,140.5c1.5,1.7,2,3.6,1.5,5.6c-0.3,1.9-1.4,2-3.3,0.3c-1.9-1.9-4.3-4.5-7.1-7.9c-2.9-3.4-2.2-4.3,2-2.6
		C310.6,137.3,312.9,138.8,314.3,140.5z M275.5,118.8c1,0,1.8,0.1,2.3,0.3c0.7,0.2,1.7,0.3,3.1,0.3c1.4-0.2,3.5-0.5,6.4-1
		c0-7.5-0.1-12.4-0.3-14.8c-0.2-2.6-0.8-4.5-1.8-5.9c-0.9-1.4-0.4-1.9,1.3-1.5c1.7,0.2,3.1,0.5,4.3,1c1.2,0.5,1.5,1.3,1,2.3
		c-0.3,0.9-0.6,3.1-0.8,6.9c4.4-0.7,7.7-1.4,9.7-2.3c2.2-0.9,4.1-0.7,5.6,0.5c1.7,1,0.1,2-4.8,3.1c-4.8,1-8.3,1.2-10.7,0.5l-0.3,9.7
		c3.4-0.3,5.6-0.8,6.6-1.3c1.2-0.5,2.6-0.4,4.3,0.3c1.7,0.5,3.1,1.2,4.3,2c1.2,0.9,1.3,1.7,0.3,2.6c-0.9,0.7-1.6,1.4-2.3,2
		c-0.7,0.5-1.6,2.2-2.8,5.1c1.9,2,2,3.1,0.3,3.1c-1.7-0.2-8.4,0.3-20.2,1.5c-0.3,1.2-0.8,1.6-1.3,1.3s-1-1.1-1.5-2.3
		c-0.3-1.4-0.9-3.4-1.5-6.1c-0.5-2.7-1.1-4.6-1.8-5.6C274.3,119.1,274.5,118.6,275.5,118.8z M298.4,144.1c-0.5,1.7-1.4,2-2.6,1
		c-1-1-2-2.1-2.8-3.3c-0.7-1.4-1.3-2.6-1.8-3.8c-0.5-1.4,0.1-1.8,1.8-1.3s3.1,1.4,4.3,2.8C298.6,140.8,299,142.4,298.4,144.1z
		 M284.2,146.4c-1,1.4-2.2,0.3-3.6-3.1c-1.2-2.4-1.8-4-1.8-4.8s0.9-0.9,2.6,0c1.7,0.9,2.8,2,3.3,3.6
		C285.4,143.5,285.2,145,284.2,146.4z M264.5,145.6c0.7-1.4,1.9-3.7,3.6-6.9c1.4-3.6,2.1-3.6,2.3,0c0.3,3.6-0.4,6.7-2.3,9.4
		c-1.7,2.9-2.9,3.5-3.6,1.8S263.8,146.8,264.5,145.6z M192.6,195c0.2-0.1,1.1-0.2,2.7-0.2c1.8-0.1,2.2-1.3,1.2-3.3
		c-0.8-2.2-0.8-4.5,0-6.9c1-2.4,1.1-3.5,0.2-3.3c-0.8,0-2.6,0.3-5.4,0.9v0c-0.2,8.3-0.4,15.7-0.7,22.2c-0.2,6.4-0.4,10.3-0.7,11.8
		c-0.3,1.3-0.7,2.3-1.2,2.9c-0.5,0.6-1.2-0.1-2-2c-0.7-1.9-0.8-3.5-0.5-4.7c0.5-1.2,0.9-2.9,1.2-5.1c0.5-2.4,0.8-6.9,1-13.6
		c0.2-6.8-0.2-10.7-1-11.8c-0.7-1.2-0.7-1.8,0-1.8c0.8,0,1.6,0.1,2.2,0.4c0.7,0.1,1.7,0.1,3,0c1.3-0.3,2.4-0.6,3.2-0.9
		c0.8-0.4,1.5-1,2-1.6c0.7-0.6,2-0.5,4,0.2c2.1,0.7,2.6,1.6,1.5,2.4c-1.2,0.7-2.4,2-3.7,3.8c-1.2,1.8-1.5,3.6-1,5.3
		c0.7,1.8,1.2,3.4,1.7,4.9c0.5,1.3,0.7,2.7,0.5,4s-0.8,1.5-2,0.4c-1-1-2.3-2-4-2.9C193.2,195.4,192.4,195,192.6,195z M228.5,183
		c-1.2,0.7-1.7,5.1-1.5,13.1c0.2,7.9,0.4,13.2,0.7,16c0.3,2.8-0.2,5.5-1.7,8c-1.5,2.7-2.6,3-3.5,0.9c-0.7-1.9-2.1-3.6-4.2-4.9
		c-2-1.3-2-1.8,0-1.3c2,0.3,3.4,0.4,4.2,0.2c1-0.1,1.5-1.7,1.5-4.7V197c0-5.9-0.2-9.9-0.5-12s-1-3.1-2-3.1s-4.3,0.4-9.9,1.3v7.8l0,0
		c2.1-0.3,3.8-0.6,5-0.9c1.3-0.4,2.4-0.3,3.2,0.4c1,0.7,0.4,1.3-1.7,1.8c-2.1,0.3-4.3,0.4-6.4,0.2c-0.2,3.4-0.3,5.8-0.5,7.1
		c1.8-0.1,3.3-0.4,4.5-0.7c1.3-0.3,2.4-0.1,3.2,0.4c1,0.4,0.7,1-1,1.6c-1.5,0.4-3.8,0.4-6.9,0c-0.3,2.4-1.2,5-2.5,8
		c-1.3,2.8-3.1,5.2-5.2,7.1c-2,1.9-4,3.3-6.2,4.2c-2,1-1.8,0.6,0.5-1.3c2.3-1.9,4.3-4.3,5.9-7.1c1.8-2.8,3.1-5.9,3.7-9.1
		c0.7-3.3,1.1-6.9,1.2-10.9c0.2-4.1-0.2-7-1-8.7c-0.7-1.6-0.7-2.4,0-2.4c0.7,0,1.5,0.1,2.5,0.4c1.2,0.3,3.2,0.2,6.2-0.2
		c3.1-0.6,5-1.2,5.7-1.8c0.8-0.6,2.5-0.3,5,0.9C229.3,181.3,229.8,182.2,228.5,183z M268.5,279c-1.4,4.4-2.6,5.5-3.8,3.3
		c-1.2-2.4-1.4-4.2-0.8-5.4c0.9-1.2,1.6-2.7,2.3-4.6c0.9-1.9,1.4-3.7,1.5-5.4c0.3-1.7,0.9-1.2,1.8,1.5
		C270.3,271.1,270,274.6,268.5,279z M313.6,284.4c-0.3,0.5-2.1,1.5-5.4,3.1c-3.2,1.5-7.5,2.3-12.8,2.3c-5.1-0.2-8.8-1.3-11.2-3.3
		c-2.2-2.2-4-4.6-5.4-7.1c-1.2-2.7-2-5.4-2.6-8.2c-0.5-2.9-0.3-3.4,0.8-1.5c1,1.9,2.1,4.1,3.3,6.6h0c1.4,2.6,3.4,4.7,6.1,6.4
		c2.7,1.7,6,2.5,9.7,2.3s6-0.7,6.9-1.5c0.9-1,0.9-2.2,0.3-3.6c-0.5-1.5-1.3-3.5-2.3-5.9c-1-2.6-0.7-2.9,1-1c1.7,1.9,3.3,3.6,4.8,5.1
		c1.7,1.5,3.3,2.8,4.8,3.8C313.4,282.9,314,283.7,313.6,284.4z M285.3,255.6c2.7,0.7,4.6,1.8,5.6,3.3c1.2,1.5,1.4,3.2,0.8,5.1
		c-0.5,1.9-1.2,2.4-2,1.5c-0.7-0.9-2-2.5-3.8-4.8c-1.9-2.4-3.1-4-3.6-4.8C281.7,254.8,282.7,254.7,285.3,255.6z M316.4,265.3
		c-0.2,2.6-1.4,2.6-3.6,0c-2-2.6-4.3-4.6-6.6-6.1s-3.1-2.3-2.3-2.3c1-0.2,2.6-0.2,4.6,0c2,0.2,3.9,1,5.6,2.6
		C316,260.8,316.8,262.7,316.4,265.3z M329,239h-78v-78h78V239z M362.3,180.5c-1.2,0.9-2.5,2.8-3.7,5.7c-1.2,2.7-1.2,5.2,0.3,7.6
		c1.6,2.2,2.3,4.4,2.1,6.6c0,2.2-0.8,2.7-2.4,1.4c-1.4-1.3-3.2-2.3-5.3-3.1c-2.1-0.9-2-1.4,0.5-1.4c2.7-0.2,3.5-1.3,2.4-3.3
		c-1.1-2.1-1.2-4.7-0.5-7.8c0.7-3.3,0.7-5.1,0-5.5c-0.5-0.3-2.4,0-5.6,0.9l0,0c0.4,19.6,0.2,31.9-0.5,36.8c-0.5,4.7-1.5,5.8-2.9,3.1
		c-1.4-2.7-1.9-4.6-1.3-5.7c0.7-1.1,1.2-3.2,1.3-6.4c0.4-3.3,0.6-6.8,0.8-10.4s0.2-7,0-10.2c-0.2-3.3-0.7-5.6-1.6-6.9
		c-0.7-1.4-0.8-2.1-0.3-2.1c0.7,0,1.7,0.1,2.9,0.2c0.9,0,2-0.2,3.2-0.5c1.4-0.3,2.5-0.7,3.2-1.2c0.9-0.5,1.5-0.9,1.9-1.2
		c0.4-0.3,1.2-0.3,2.4,0c1.2,0.2,2.4,0.6,3.5,1.2C363.6,178.9,363.5,179.6,362.3,180.5z M391.4,206.4c0.5,2.7,0.2,5.5-1.1,8.5
		c-1.1,3-2,3.5-2.9,1.4c-0.9-2.1-1.5-3.7-1.9-5v0c-2.1,0-4.7,0.2-7.7,0.5c-2.8,0.2-4.9,0-6.1-0.5c-0.7,3.6-1.7,4.5-2.9,2.6
		s-1.7-3.5-1.3-4.7s0.5-4.7,0.5-10.4c0.2-5.8-0.3-9.6-1.3-11.4s-1-2.5,0.3-2.1c1.2,0.2,2.3,0.4,3.2,0.7c1.1,0.3,3.2,0.2,6.4-0.2
		c3.2-0.6,5.5-1.3,6.9-2.1c1.6-0.8,3.2-0.9,4.8-0.2c1.6,0.5,2.8,1,3.7,1.7c0.9,0.6,0.9,1.5,0,2.6c-0.7,0.9-1.1,2.3-1.1,4v6.4
		C390.8,200.8,391,203.5,391.4,206.4z"/>
	<path class="st2" d="M281.1,131c3.2-0.5,8.7-1.2,16.3-2c0.7-3.4,1.1-5.9,1.3-7.4c0.2-1.5-0.3-2.3-1.5-2.3c-1.2,0-3.7,0.3-7.7,0.8
		l-9.4,1.3l0.5,4.3L281.1,131z"/>
	<path class="st2" d="M386.6,192.4c0-3.3-0.4-5.1-1.3-5.5c-0.7-0.5-2.1-0.6-4.3-0.2c-2.1,0.3-5.3,0.7-9.6,1.2v10.4
		c1.8-0.5,3.7-0.9,5.9-1.4c2.3-0.6,4.2-0.5,5.6,0.5c1.4,0.8,0.6,1.5-2.4,2.1c-2.8,0.5-5.8,0.8-8.8,0.9v9l0,0c3.6-0.3,6.2-0.6,8-0.9
		c2-0.5,4.2-0.2,6.7,0.7c0.5,0.6,0.7-1.2,0.5-5.5C386.7,199.5,386.6,195.7,386.6,192.4z"/>
	<path class="st3" d="M290,69.5c-72,0-130.5,58.5-130.5,130.5S218,330.5,290,330.5S420.5,272,420.5,200S362,69.5,290,69.5z M290,326
		c-69.6,0-126-56.4-126-126S220.4,74,290,74s126,56.4,126,126S359.6,326,290,326z"/>
	<path class="st3" d="M290,74c-69.6,0-126,56.4-126,126s56.4,126,126,126s126-56.4,126-126S359.6,74,290,74z M290,321.5
		c-67,0-121.5-54.5-121.5-121.5S223,78.5,290,78.5S411.5,133,411.5,200S357,321.5,290,321.5z"/>
	<path class="st3" d="M251,239h78v-78h-78V239z M255.5,165.5h69v69h-69V165.5z"/>
	<path class="st3" d="M324.5,165.5h-69v69h69V165.5z M320,230h-60v-60h60V230z"/>
	<path class="st0" d="M291.3,137.9c0.5,1.2,1.1,2.5,1.8,3.8c0.9,1.2,1.8,2.3,2.8,3.3c1.2,1,2,0.7,2.6-1c0.5-1.7,0.2-3.2-1-4.6
		c-1.2-1.4-2.6-2.3-4.3-2.8S290.8,136.6,291.3,137.9z"/>
	<path class="st0" d="M281.4,138.4c-1.7-0.9-2.6-0.9-2.6,0s0.6,2.5,1.8,4.8c1.4,3.4,2.6,4.4,3.6,3.1c1-1.4,1.2-2.8,0.5-4.3
		C284.2,140.5,283.1,139.3,281.4,138.4z"/>
	<path class="st0" d="M276.8,125.9c0.7,2.7,1.2,4.8,1.5,6.1c0.5,1.2,1,2,1.5,2.3s0.9-0.1,1.3-1.3c11.7-1.2,18.5-1.7,20.2-1.5
		c1.7,0,1.6-1-0.3-3.1c1.2-2.9,2.1-4.6,2.8-5.1c0.7-0.7,1.4-1.4,2.3-2c1-0.9,0.9-1.7-0.3-2.6c-1.2-0.9-2.6-1.5-4.3-2
		c-1.7-0.7-3.1-0.8-4.3-0.3c-1,0.5-3.2,0.9-6.6,1.3l0.3-9.7c2.4,0.7,6,0.5,10.7-0.5c4.9-1,6.5-2,4.8-3.1c-1.5-1.2-3.4-1.4-5.6-0.5
		c-2,0.9-5.3,1.6-9.7,2.3c0.2-3.7,0.4-6,0.8-6.9c0.5-1,0.2-1.8-1-2.3c-1.2-0.5-2.6-0.9-4.3-1c-1.7-0.3-2.1,0.2-1.3,1.5
		c1,1.4,1.6,3.3,1.8,5.9c0.2,2.4,0.3,7.3,0.3,14.8c-2.9,0.5-5,0.9-6.4,1c-1.4,0-2.4-0.1-3.1-0.3c-0.5-0.2-1.3-0.3-2.3-0.3
		c-1-0.2-1.2,0.3-0.5,1.5C275.7,121.4,276.3,123.2,276.8,125.9z M289.5,120.1c3.9-0.5,6.5-0.8,7.7-0.8c1.2,0,1.7,0.8,1.5,2.3
		c-0.2,1.5-0.6,4-1.3,7.4c-7.7,0.9-13.1,1.5-16.3,2l-0.5-5.4l-0.5-4.3L289.5,120.1z"/>
	<path class="st0" d="M268.1,148.1c1.9-2.7,2.6-5.9,2.3-9.4c-0.2-3.6-0.9-3.6-2.3,0c-1.7,3.2-2.9,5.5-3.6,6.9
		c-0.7,1.2-0.7,2.6,0,4.3S266.4,151,268.1,148.1z"/>
	<path class="st0" d="M305.3,138.4c2.9,3.4,5.3,6,7.1,7.9c1.9,1.7,3,1.6,3.3-0.3c0.5-2,0-3.9-1.5-5.6c-1.4-1.7-3.7-3.2-6.9-4.6
		C303.1,134.2,302.4,135,305.3,138.4z"/>
	<path class="st0" d="M314.1,259.4c-1.7-1.5-3.6-2.4-5.6-2.6c-2-0.2-3.6-0.2-4.6,0c-0.9,0-0.1,0.8,2.3,2.3s4.6,3.6,6.6,6.1
		c2.2,2.6,3.4,2.6,3.6,0C316.8,262.7,316,260.8,314.1,259.4z"/>
	<path class="st0" d="M267.7,267.1c-0.2,1.7-0.7,3.5-1.5,5.4c-0.7,1.9-1.4,3.4-2.3,4.6c-0.7,1.2-0.4,3,0.8,5.4
		c1.2,2.2,2.5,1.1,3.8-3.3c1.5-4.4,1.9-7.9,1-10.5C268.6,265.9,268,265.4,267.7,267.1z"/>
	<path class="st0" d="M289.6,265.5c0.9,0.9,1.5,0.3,2-1.5c0.7-1.9,0.4-3.6-0.8-5.1c-1-1.5-2.9-2.6-5.6-3.3c-2.6-0.9-3.6-0.8-3.1,0.3
		c0.5,0.9,1.7,2.5,3.6,4.8C287.7,263.1,289,264.7,289.6,265.5z"/>
	<path class="st0" d="M311.8,281.9c-1.5-1-3.1-2.3-4.8-3.8c-1.5-1.5-3.1-3.2-4.8-5.1c-1.7-1.9-2-1.5-1,1c1,2.4,1.8,4.3,2.3,5.9
		c0.7,1.4,0.6,2.6-0.3,3.6c-0.9,0.9-3.1,1.4-6.9,1.5s-7-0.6-9.7-2.3c-2.7-1.7-4.8-3.8-6.1-6.4h0c-1.2-2.6-2.3-4.8-3.3-6.6
		c-1-1.9-1.3-1.4-0.8,1.5c0.5,2.7,1.4,5.4,2.6,8.2c1.4,2.6,3.1,4.9,5.4,7.1c2.4,2,6.1,3.1,11.2,3.3c5.3,0,9.5-0.8,12.8-2.3
		c3.2-1.5,5-2.6,5.4-3.1C314,283.7,313.4,282.9,311.8,281.9z"/>
	<path class="st0" d="M200.8,198.7c0.2-1.3,0-2.7-0.5-4c-0.5-1.5-1.1-3.1-1.7-4.9c-0.5-1.8-0.2-3.6,1-5.3c1.3-1.8,2.6-3,3.7-3.8
		c1.2-0.9,0.7-1.7-1.5-2.4c-2-0.7-3.3-0.8-4-0.2c-0.5,0.6-1.2,1.1-2,1.6c-0.8,0.3-1.9,0.6-3.2,0.9c-1.3,0.1-2.3,0.1-3,0
		c-0.7-0.3-1.4-0.4-2.2-0.4c-0.7,0-0.7,0.6,0,1.8c0.8,1,1.2,5,1,11.8c-0.2,6.7-0.5,11.2-1,13.6c-0.3,2.2-0.7,3.9-1.2,5.1
		c-0.3,1.2-0.2,2.7,0.5,4.7c0.8,1.9,1.5,2.6,2,2c0.5-0.6,0.9-1.6,1.2-2.9c0.3-1.5,0.6-5.4,0.7-11.8c0.3-6.5,0.6-13.9,0.7-22.2v0
		c2.8-0.6,4.6-0.9,5.4-0.9c0.8-0.1,0.7,1-0.2,3.3c-0.8,2.4-0.8,4.7,0,6.9c1,2.1,0.6,3.2-1.2,3.3c-1.7,0-2.6,0.1-2.7,0.2
		c-0.2,0,0.6,0.4,2.2,1.3c1.7,0.9,3,1.9,4,2.9C200,200.2,200.6,200.1,200.8,198.7z"/>
	<path class="st0" d="M226.8,180.1c-2.5-1.2-4.1-1.5-5-0.9c-0.7,0.6-2.6,1.2-5.7,1.8c-3,0.4-5,0.5-6.2,0.2c-1-0.3-1.8-0.4-2.5-0.4
		c-0.7,0-0.7,0.8,0,2.4c0.8,1.6,1.2,4.5,1,8.7c-0.2,4-0.6,7.6-1.2,10.9c-0.7,3.3-1.9,6.3-3.7,9.1c-1.7,2.8-3.6,5.2-5.9,7.1
		c-2.3,1.9-2.5,2.4-0.5,1.3c2.1-0.9,4.2-2.3,6.2-4.2c2.1-1.9,3.9-4.3,5.2-7.1c1.3-3,2.1-5.6,2.5-8c3.1,0.4,5.4,0.4,6.9,0
		c1.7-0.6,2-1.1,1-1.6c-0.8-0.6-1.9-0.7-3.2-0.4c-1.2,0.3-2.6,0.5-4.5,0.7c0.2-1.3,0.3-3.7,0.5-7.1c2.1,0.1,4.3,0.1,6.4-0.2
		c2.1-0.4,2.7-1,1.7-1.8c-0.8-0.7-1.9-0.9-3.2-0.4c-1.2,0.3-2.8,0.6-5,0.9l0,0v-7.8c5.6-0.9,8.9-1.3,9.9-1.3s1.7,1,2,3.1
		s0.5,6.1,0.5,12v13.3c0,3-0.5,4.5-1.5,4.7c-0.8,0.1-2.2,0.1-4.2-0.2c-2-0.4-2,0,0,1.3c2.1,1.3,3.5,3,4.2,4.9c0.8,2.1,2,1.8,3.5-0.9
		c1.5-2.5,2.1-5.2,1.7-8c-0.3-2.8-0.6-8.2-0.7-16c-0.2-8,0.3-12.4,1.5-13.1C229.8,182.2,229.3,181.3,226.8,180.1z"/>
	<path class="st0" d="M391.9,187.7c0.9-1.1,0.9-2,0-2.6c-0.9-0.6-2.1-1.2-3.7-1.7c-1.6-0.6-3.2-0.6-4.8,0.2
		c-1.4,0.8-3.7,1.5-6.9,2.1c-3.2,0.5-5.3,0.6-6.4,0.2c-0.9-0.3-2-0.6-3.2-0.7c-1.2-0.3-1.3,0.4-0.3,2.1s1.5,5.5,1.3,11.4
		c0,5.7-0.2,9.2-0.5,10.4s0.1,2.8,1.3,4.7s2.2,1,2.9-2.6c1.2,0.5,3.3,0.6,6.1,0.5c3-0.3,5.6-0.5,7.7-0.5v0c0.4,1.3,1,2.9,1.9,5
		c0.9,2.1,1.9,1.6,2.9-1.4c1.2-3,1.6-5.8,1.1-8.5c-0.4-2.8-0.5-5.6-0.5-8.3v-6.4C390.8,189.9,391.2,188.6,391.9,187.7z M386.3,209.2
		c-2.5-0.9-4.7-1.2-6.7-0.7c-1.8,0.3-4.4,0.6-8,0.9l0,0v-9c3-0.2,6-0.5,8.8-0.9c3-0.6,3.8-1.3,2.4-2.1c-1.4-0.9-3.3-1.1-5.6-0.5
		c-2.1,0.5-4.1,0.9-5.9,1.4v-10.4c4.3-0.5,7.5-0.9,9.6-1.2c2.1-0.3,3.6-0.2,4.3,0.2c0.9,0.3,1.3,2.1,1.3,5.5c0,3.3,0.1,7.1,0.3,11.4
		C387,208,386.8,209.9,386.3,209.2z"/>
	<path class="st0" d="M362.6,178.4c-1.1-0.6-2.2-1-3.5-1.2c-1.2-0.3-2-0.3-2.4,0c-0.4,0.3-1,0.7-1.9,1.2c-0.7,0.5-1.8,0.9-3.2,1.2
		c-1.2,0.3-2.3,0.5-3.2,0.5c-1.2-0.2-2.2-0.2-2.9-0.2c-0.5,0-0.4,0.7,0.3,2.1c0.9,1.3,1.4,3.6,1.6,6.9c0.2,3.2,0.2,6.6,0,10.2
		s-0.4,7.1-0.8,10.4c-0.2,3.2-0.6,5.3-1.3,6.4c-0.5,1.1-0.1,3,1.3,5.7c1.4,2.7,2.4,1.7,2.9-3.1c0.7-4.9,0.9-17.2,0.5-36.8l0,0
		c3.2-0.9,5.1-1.3,5.6-0.9c0.7,0.3,0.7,2.1,0,5.5c-0.7,3.2-0.5,5.8,0.5,7.8c1.1,2.1,0.3,3.2-2.4,3.3c-2.5,0-2.7,0.5-0.5,1.4
		c2.1,0.8,3.9,1.8,5.3,3.1c1.6,1.3,2.4,0.8,2.4-1.4c0.2-2.2-0.5-4.4-2.1-6.6c-1.4-2.4-1.5-4.9-0.3-7.6c1.2-2.8,2.5-4.7,3.7-5.7
		S363.6,178.9,362.6,178.4z"/>
</g>
</svg>
