<svg width="580" height="400" xmlns="http://www.w3.org/2000/svg">
 <!-- Created with Method Draw - http://github.com/duopixel/Method-Draw/ -->

 <g stroke="null">
  <title>background</title>
  <rect x="-1" y="-1" width="582" height="402" opacity="0" id="canvas_background" fill="#ffffff" stroke="null"/>
  <g id="canvasGrid" display="none" stroke="null">
   <rect id="svg_1" width="580" height="400" x="183" y="86" stroke-width="0" fill="url(#gridpattern)" stroke="null"/>
  </g>
 </g>
 <g stroke="null">
  <title>Layer 1</title>
  <metadata transform="matrix(0.01085069392704302,0,0,0.01085069392704302,0,0) ">Created by potrace 1.15, written by Peter Selinger 2001-2017</metadata>
  <metadata transform="matrix(0.01085069392704302,0,0,0.01085069392704302,0,0) ">Created by potrace 1.15, written by Peter Selinger 2001-2017</metadata>

  <metadata transform="matrix(0.1571108729352524,0,0,0.1571108729352524,0,0) " id="svg_88">image/svg+xml</metadata>

  <metadata transform="matrix(1.157405278346019,0,0,1.157405278346019,0,0) " id="svg_101">image/svg+xml</metadata>

  <metadata transform="matrix(1.157405278346019,0,0,1.157405278346019,0,0) " id="svg_114">image/svg+xml</metadata>

  <metadata transform="matrix(0.1571108729352524,0,0,0.1571108729352524,0,0) " id="svg_127">image/svg+xml</metadata>

  <metadata transform="matrix(0.1571108729352524,0,0,0.1571108729352524,0,0) " id="svg_140">image/svg+xml</metadata>
  <g id="svg_143">
   <ellipse fill="#f8c962" stroke-width="9" cx="290.000005" cy="200.000001" id="svg_2" rx="168.000009" ry="168" stroke="#f2d560"/>
   <ellipse fill="#c4a061" stroke-width="9" cx="290.000002" cy="199.999995" id="svg_7" rx="126" ry="126" stroke="#b98d53"/>
   <rect fill="#ffffff" stroke-width="9" x="255.5" y="165.5" width="69" height="69" id="svg_11" stroke="#b98d53"/>
   <g id="svg_103">
    <g transform="matrix(1.157405278346019,0,0,1.157405278346019,0,0) " id="svg_98">
     <g font-style="normal" font-weight="normal" font-size="56.420948px" font-family="KaiTi" text-anchor="start" fill="#000000" stroke-width="1.253799px" id="svg_99">
      <path stroke-width="1.253799px" d="m251.469603,91.84809q5.730253,-0.88158 8.374985,-1.98355q2.865126,-1.10197 4.84867,0.44079q2.20395,1.32236 -4.187487,2.64473q-6.171042,1.32237 -9.256562,0.44079l-0.220394,8.37498q4.407886,-0.44079 5.730252,-1.10197q1.54276,-0.66118 3.746704,0.2204q2.203943,0.66118 3.746707,1.76315q1.54276,1.10197 0.22039,2.20394q-1.10197,0.88158 -1.983548,1.76316q-0.881578,0.66118 -2.424338,4.40788q2.424338,2.64474 0.220394,2.64474q-2.203943,-0.2204 -17.411152,1.32236q-0.440788,1.54276 -1.101971,1.10197q-0.661183,-0.44078 -1.322366,-1.98355q-0.440789,-1.76315 -1.322366,-5.28946q-0.661183,-3.52631 -1.542761,-4.84867q-0.881577,-1.54276 0.440789,-1.32237q1.322366,0 1.983549,0.22039q0.881577,0.2204 2.644732,0.2204q1.763155,-0.2204 5.509858,-0.88158q0,-9.69735 -0.220394,-12.78287q-0.220394,-3.30591 -1.54276,-5.06907q-1.101972,-1.76315 1.101971,-1.32237q2.203944,0.2204 3.746704,0.88158q1.54276,0.66118 0.881577,1.98355q-0.440789,1.10197 -0.661183,5.95065zm-9.036167,16.74997l0.440788,4.62828q4.187493,-0.66119 14.105237,-1.76316q0.881578,-4.40788 1.101972,-6.39143q0.220394,-1.98355 -1.322366,-1.98355q-1.54276,0 -6.61183,0.66118l-8.15459,1.10197l0.440789,3.74671zm23.141402,8.81577q4.18749,1.76315 5.95065,3.9671q1.98355,2.20394 1.32236,4.84867q-0.44078,2.42434 -2.86512,0.2204q-2.42434,-2.42434 -6.17104,-6.83223q-3.746706,-4.40788 1.76315,-2.20394zm-33.940724,2.42434q1.763154,-4.62828 1.983549,0q0.440788,4.62828 -1.983549,8.15459q-2.203944,3.7467 -3.085521,1.54276q-0.881577,-2.20395 0,-3.74671q0.881577,-1.76315 3.085521,-5.95064zm25.345347,0.66118q1.542761,1.76315 0.881578,3.9671q-0.661183,2.20394 -2.203944,0.88158q-1.322366,-1.32237 -2.424337,-2.86513q-0.881578,-1.76316 -1.542761,-3.30592q-0.661182,-1.76315 1.542761,-1.10197q2.203943,0.66119 3.746703,2.42434zm-14.546025,3.30592q-1.542761,-3.08553 -1.542761,-4.1875q0,-1.10197 2.203944,0q2.203943,1.10197 2.865126,3.08552q0.881577,1.98355 -0.440789,3.74671q-1.322366,1.76315 -3.08552,-2.64473z" fill="#f8c962" id="svg_100"/>
     </g>
    </g>
   </g>
   <g id="svg_116">
    <g transform="matrix(1.157405278346019,0,0,1.157405278346019,0,0) " id="svg_111">
     <g font-style="normal" font-weight="normal" font-size="56.420948px" font-family="KaiTi" text-anchor="start" fill="#000000" stroke-width="1.253799px" id="svg_112">
      <path stroke-width="1.253799px" d="m242.311854,238.673233q1.76315,3.30591 5.28946,5.50986q3.52631,2.20394 8.37499,1.98355q4.84867,-0.2204 5.95064,-1.32237q1.10198,-1.32237 0.2204,-3.08552q-0.66118,-1.98355 -1.98355,-5.06907q-1.32237,-3.30592 0.88158,-0.88158q2.20394,2.42434 4.18749,4.40789q2.20394,1.98355 4.18749,3.30591q1.98355,1.32237 1.54276,2.20395q-0.44079,0.66118 -4.62828,2.64473q-4.18749,1.98355 -11.01971,1.98355q-6.61183,-0.2204 -9.69736,-2.86513q-2.86512,-2.86512 -4.62828,-6.17104q-1.54276,-3.52631 -2.20394,-7.05262q-0.66118,-3.7467 0.66118,-1.32236q1.32237,2.42433 2.86513,5.73025zm-12.34208,-3.30592q1.10197,-2.42433 1.32236,-4.62828q0.44079,-2.20394 1.54276,1.32237q1.10198,3.30591 -0.88157,9.03617q-1.76316,5.73025 -3.30592,2.86512q-1.54276,-3.08552 -0.66118,-4.62828q1.10197,-1.54276 1.98355,-3.9671zm36.58546,-13.44405q2.64473,0.22039 4.84867,2.20394q2.42434,1.76316 1.98355,5.06907q-0.22039,3.30592 -3.08552,0q-2.64473,-3.30591 -5.73025,-5.28946q-3.08552,-1.98355 -1.98355,-1.98355q1.32236,-0.2204 3.9671,0zm-20.05589,-1.10197q3.52631,0.88157 4.84868,2.86512q1.54276,1.98355 0.66118,4.40789q-0.66118,2.42434 -1.76315,1.32237q-0.88158,-1.10198 -3.30592,-4.1875q-2.42434,-3.08552 -3.08552,-4.18749q-0.66118,-1.32236 2.64473,-0.22039z" fill="#f8c962" id="svg_113"/>
     </g>
    </g>
   </g>
   <g stroke="null" id="svg_129">
    <g stroke="null" transform="matrix(0.41890443001181016,0,0,0.3760146597268645,-469.72648922092776,-291.661546894582) " id="svg_124">
     <g font-style="normal" font-weight="normal" font-size="151.347198px" font-family="KaiTi" text-anchor="start" fill="#000000" stroke-width="1px" id="svg_125">
      <path stroke="null" d="m1626.624648,1283.51326q7.6856,-1.1824 11.824,-2.3648q4.7296,-1.7736 7.6856,1.1824q3.5472,2.956 -4.1384,4.7296q-7.6856,1.1824 -15.3712,0.5912q-0.5912,13.5976 -1.1824,18.9184q6.5032,-0.5912 10.6416,-1.7736q4.7296,-1.1824 7.6856,1.1824q3.5472,1.7736 -2.3648,4.1384q-5.3208,1.7736 -16.5536,0q-1.1824,9.4592 -5.912,21.2832q-4.7296,11.2328 -12.4152,18.9184q-7.0944,7.6856 -14.78,11.2328q-7.0944,4.1384 1.1824,-3.5472q8.2768,-7.6856 14.1888,-18.9184q6.5032,-11.2328 8.868,-24.2392q2.3648,-13.0064 2.956,-28.9688q0.5912,-16.5536 -2.3648,-23.0568q-2.3648,-6.5032 0,-6.5032q2.3648,0 5.912,1.1824q4.1384,1.1824 14.78,-0.5912q11.2328,-2.3648 13.5976,-4.7296q2.956,-2.3648 11.824,2.3648q8.868,4.7296 4.1384,7.6856q-4.1384,2.956 -3.5472,34.8808q0.5912,31.3336 1.7736,42.5664q1.1824,11.2328 -4.1384,21.2832q-5.3208,10.6416 -8.2768,2.3648q-2.3648,-7.6856 -10.0504,-13.0064q-7.0944,-5.3208 0,-3.5472q7.0944,1.1824 10.0504,0.5912q3.5472,-0.5912 3.5472,-12.4152l0,-35.472q0,-23.648 -1.1824,-31.9248q-1.1824,-8.2768 -4.7296,-8.2768q-3.5472,0 -23.648,3.5472l0,20.692zm-48.4784,-23.648q-0.5912,33.1072 -1.7736,59.12q-0.5912,25.4216 -1.7736,31.3336q-1.1824,5.3208 -2.956,7.6856q-1.7736,2.3648 -4.7296,-5.3208q-2.3648,-7.6856 -1.1824,-12.4152q1.7736,-4.7296 2.956,-13.5976q1.7736,-9.4592 2.3648,-36.0632q0.5912,-27.1952 -2.3648,-31.3336q-2.3648,-4.7296 0,-4.7296q2.956,0 5.3208,1.1824q2.3648,0.5912 7.0944,0q4.7296,-1.1824 7.6856,-2.3648q2.956,-1.7736 4.7296,-4.1384q2.3648,-2.3648 9.4592,0.5912q7.6856,2.956 3.5472,6.5032q-4.1384,2.956 -8.868,10.0504q-4.1384,7.0944 -2.3648,14.1888q2.3648,7.0944 4.1384,13.0064q1.7736,5.3208 1.1824,10.6416q-0.5912,5.3208 -4.7296,1.1824q-3.5472,-4.1384 -9.4592,-7.6856q-5.912,-3.5472 -5.3208,-3.5472q0.5912,-0.5912 6.5032,-0.5912q6.5032,-0.5912 2.956,-8.868q-2.956,-8.868 0,-18.3272q3.5472,-9.4592 0.5912,-8.868q-2.956,0 -13.0064,2.3648z" fill="#f8c962" id="svg_126"/>
     </g>
    </g>
   </g>
   <g stroke="null" id="svg_142">
    <g stroke="null" transform="matrix(0.4511679596220476,0,0,0.40105412269298796,-527.279490584493,-296.53644478816204) " id="svg_137">
     <g font-style="normal" font-weight="normal" font-size="151.347198px" font-family="KaiTi" text-anchor="start" fill="#000000" stroke-width="1px" id="svg_138">
      <path stroke="null" d="m2023.135724,1266.412046q-7.0944,0 -17.1448,1.1824q-9.4592,0.5912 -13.5976,-1.1824q-2.3648,13.5976 -6.5032,6.5032q-4.1384,-7.0944 -2.956,-11.824q1.1824,-4.7296 1.1824,-26.0128q0.5912,-21.8744 -2.956,-28.3776q-3.5472,-6.5032 0.5912,-5.3208q4.1384,0.5912 7.0944,1.7736q3.5472,1.1824 14.1888,-0.5912q10.6416,-2.3648 15.3712,-5.3208q5.3208,-2.956 10.6416,-0.5912q5.3208,1.7736 8.2768,4.1384q2.956,2.3648 0,6.5032q-2.3648,3.5472 -2.3648,10.0504l0,15.9624q0,10.0504 1.1824,20.692q1.7736,10.0504 -2.3648,21.2832q-3.5472,11.2328 -6.5032,3.5472q-2.956,-7.6856 -4.1384,-12.4152zm-30.7424,-4.7296q11.824,-1.1824 17.736,-2.3648q6.5032,-1.7736 14.78,1.7736q1.7736,2.3648 1.1824,-13.5976q-0.5912,-15.9624 -0.5912,-28.3776q0,-12.4152 -2.956,-13.5976q-2.3648,-1.7736 -9.4592,-0.5912q-7.0944,1.1824 -21.2832,2.956l0,26.0128q5.912,-1.7736 13.0064,-3.5472q7.6856,-2.3648 12.4152,1.1824q4.7296,2.956 -5.3208,5.3208q-9.4592,1.7736 -19.5096,2.3648l0,22.4656zm-47.8872,-69.1704q1.1824,73.3088 -1.1824,91.636q-1.7736,17.736 -6.5032,7.6856q-4.7296,-10.0504 -2.956,-14.1888q2.3648,-4.1384 2.956,-15.9624q1.1824,-12.4152 1.7736,-26.0128q0.5912,-13.5976 0,-25.4216q-0.5912,-12.4152 -3.5472,-17.1448q-2.3648,-5.3208 -0.5912,-5.3208q2.3648,0 6.5032,0.5912q2.956,0 7.0944,-1.1824q4.7296,-1.1824 7.0944,-2.956q2.956,-1.7736 4.1384,-2.956q1.1824,-1.1824 5.3208,0q4.1384,0.5912 7.6856,2.956q3.5472,1.7736 -0.5912,5.3208q-4.1384,3.5472 -8.2768,14.1888q-4.1384,10.0504 0.5912,18.9184q5.3208,8.2768 4.7296,16.5536q0,8.2768 -5.3208,3.5472q-4.7296,-4.7296 -11.824,-7.6856q-7.0944,-3.5472 1.1824,-3.5472q8.868,-0.5912 5.3208,-8.2768q-3.5472,-7.6856 -1.1824,-19.5096q2.3648,-12.4152 0,-13.5976q-1.7736,-1.1824 -12.4152,2.3648z" fill="#f8c962" id="svg_139"/>
     </g>
    </g>
   </g>
  </g>
 </g>
</svg>
