<svg width="580" height="400" xmlns="http://www.w3.org/2000/svg">
 <!-- Created with Method Draw - http://github.com/duopixel/Method-Draw/ -->

 <g stroke="null">
  <title>background</title>
  <rect stroke="null" fill="#ffffff" opacity="0" id="canvas_background" height="402" width="582" y="-1" x="-1"/>
  <g stroke="null" display="none" id="canvasGrid">
   <rect stroke="null" fill="url(#gridpattern)" stroke-width="0" y="86" x="183" height="400" width="580" id="svg_1"/>
  </g>
 </g>
 <g stroke="null">
  <title>Layer 1</title>
  <metadata>Created by potrace 1.15, written by Peter Selinger 2001-2017</metadata>
  <metadata>Created by potrace 1.15, written by Peter Selinger 2001-2017</metadata>
  <ellipse stroke="#f2d560" ry="168" rx="168.000009" id="svg_2" cy="200.000001" cx="290.000005" stroke-width="9" fill="#f8c962"/>
  <ellipse stroke="#b98d53" ry="126" rx="126" id="svg_7" cy="199.999995" cx="290.000002" stroke-width="9" fill="#c4a061"/>
  <rect stroke="#b98d53" id="svg_11" height="69" width="69" y="165.5" x="255.5" stroke-width="9" fill="#ffffff"/>
  <g id="svg_50" stroke="null" transform="rotate(-1.147750735282898 214.97731018066608,201.00587463378812) ">
   <g fill="#b98d53" id="svg_31" transform="matrix(0.009660026858745651,0,0,-0.011486929698527795,-2248.4806924158042,-1735.9310746281549) ">
    <path d="m255355.958596,-162274.828414c-1,-2 -3,-12 -5,-23c-6,-35 -9,-50 -16,-61c-4,-6 -13,-41 -20,-78c-7,-36 -16,-66 -21,-66c-4,0 -5,-4 -2,-10c3,-5 -1,-20 -9,-33c-9,-12 -17,-32 -19,-43c-1,-11 -12,-33 -24,-48c-12,-15 -19,-34 -16,-42c3,-8 1,-14 -5,-14c-5,0 -19,-19 -30,-42c-11,-24 -38,-58 -61,-77c-23,-19 -41,-40 -41,-46c0,-7 -8,-19 -18,-28c-24,-22 -42,-5 -42,39c0,40 -16,84 -36,98c-8,7 -16,20 -18,31c-2,15 -12,21 -37,23c-30,2 -35,-1 -47,-30c-7,-18 -21,-51 -31,-73c-10,-22 -19,-44 -21,-50c-6,-25 -41,-85 -54,-92c-8,-4 -40,-37 -71,-73c-33,-38 -65,-65 -77,-66c-11,-1 -32,-13 -47,-27c-14,-15 -43,-40 -63,-58c-21,-17 -35,-35 -32,-40c3,-5 -11,-25 -30,-45c-20,-21 -36,-43 -36,-51c0,-24 -1,-28 -17,-45c-10,-11 -17,-42 -19,-85c-4,-76 -17,-110 -48,-119c-29,-9 -86,-61 -125,-115c-14,-19 -51,-56 -83,-84c-110,-94 -128,-112 -128,-134c0,-26 -82,-111 -108,-111c-10,0 -32,-11 -48,-25c-16,-14 -35,-25 -41,-25c-7,0 -13,-4 -13,-10c0,-5 -6,-10 -12,-10c-7,0 -27,-14 -45,-30c-18,-17 -35,-30 -38,-30c-8,0 -60,-37 -116,-82c-26,-21 -50,-38 -53,-38c-3,0 -15,-9 -26,-20c-12,-12 -25,-18 -31,-14c-15,9 -31,53 -36,97c-2,22 -9,51 -14,65l-10,27l-19,-25c-12,-15 -20,-41 -20,-67c0,-61 -21,-54 -43,13c-16,52 -16,58 0,107c9,29 28,66 42,84c34,42 83,110 99,140c8,13 20,27 29,30c8,3 46,38 85,77c38,39 75,71 80,71c6,0 14,7 17,16c3,8 27,35 54,59c26,24 47,48 47,53c0,5 6,23 14,40c26,61 39,144 32,212c-9,85 -45,139 -119,175c-47,22 -67,25 -209,30l-156,5l-41,37c-23,20 -41,43 -41,50c0,8 -5,19 -12,26c-9,9 -14,7 -24,-6c-18,-23 -17,-42 5,-88c21,-42 38,-59 88,-87c25,-14 57,-17 171,-17c131,0 142,-2 167,-22c56,-47 65,-59 65,-82c0,-14 7,-32 16,-41c11,-10 14,-26 11,-48c-8,-48 -12,-66 -19,-73c-4,-3 -4,-12 -1,-20c3,-8 0,-14 -6,-14c-6,0 -11,-7 -11,-15c0,-8 -11,-25 -25,-39c-14,-14 -25,-34 -25,-46c0,-12 -9,-24 -23,-29c-13,-5 -34,-24 -48,-41c-13,-18 -32,-40 -42,-49c-52,-47 -69,-61 -76,-61c-4,0 -36,-31 -72,-69c-75,-80 -101,-111 -93,-111c3,0 -2,-7 -10,-16c-9,-8 -17,-22 -17,-30c-1,-8 -3,-17 -4,-21c-1,-5 -6,-23 -10,-41c-4,-18 -12,-35 -16,-38c-14,-8 -11,-65 6,-125c23,-78 33,-94 75,-118c37,-20 56,-46 42,-55c-16,-9 -120,13 -152,33c-19,11 -45,21 -57,21c-13,0 -24,8 -28,20c-8,26 -41,26 -48,0c-4,-15 7,-30 39,-59c24,-21 44,-41 44,-45c0,-11 -60,-36 -89,-36c-34,0 -101,-36 -101,-55c0,-7 -9,-24 -20,-38c-30,-37 -25,-58 25,-108c24,-24 45,-48 45,-53c0,-5 -14,-23 -31,-41c-30,-30 -33,-31 -59,-18c-39,19 -110,131 -110,172c0,17 -7,48 -16,69c-21,51 -23,145 -3,168c8,11 24,39 34,64c10,25 27,65 38,89c11,26 16,53 12,68c-7,29 -92,113 -114,113c-9,0 -28,6 -42,14c-22,11 -46,14 -81,7c-21,-4 -48,-48 -48,-80c0,-20 -7,-58 -16,-86c-8,-27 -18,-59 -21,-70c-9,-29 -10,-175 -1,-210c3,-16 12,-57 19,-90c7,-33 17,-69 23,-80c5,-11 12,-30 13,-42c3,-21 14,-40 71,-130c29,-45 19,-57 -40,-48c-50,8 -115,63 -159,136c-30,51 -55,178 -46,241c12,94 -27,178 -75,162c-12,-3 -27,1 -38,11c-15,14 -29,16 -63,11c-64,-10 -74,-26 -78,-126c-2,-47 -8,-91 -13,-98c-16,-23 -15,-124 3,-177c39,-118 92,-154 95,-66c1,34 18,31 31,-7c6,-16 15,-35 21,-43c6,-8 15,-25 19,-39c4,-14 15,-34 25,-45c9,-11 21,-28 26,-37c5,-9 35,-39 66,-66c42,-37 53,-53 45,-61c-16,-16 -22,-14 -80,25c-49,34 -146,130 -147,146c0,4 -11,19 -24,33c-14,15 -26,31 -28,37c-2,5 -23,13 -47,18c-39,7 -46,5 -76,-21c-18,-16 -41,-29 -51,-29c-24,0 -34,-8 -62,-44c-29,-38 -28,-62 8,-115c20,-29 30,-57 30,-80c0,-44 61,-195 92,-228c41,-44 51,-28 49,74c-2,91 6,116 29,88c7,-8 18,-15 25,-15c6,0 19,-8 29,-18c20,-23 111,-69 151,-77c17,-3 67,-9 111,-12c64,-4 89,-2 114,11c18,9 39,16 46,16c7,0 25,10 41,23c31,26 86,43 183,57c121,17 185,35 188,53c2,9 9,17 15,17c6,0 20,9 32,19c49,48 113,101 120,101c9,0 69,53 173,151c64,61 77,69 111,69c35,0 71,-22 71,-44c0,-4 13,-35 29,-69c27,-56 74,-107 88,-94c2,3 9,34 13,69c5,35 11,72 14,83c2,11 5,26 5,33c1,16 42,15 106,-3c56,-17 85,-46 85,-86c0,-20 38,-108 51,-119c4,-3 9,-15 13,-27c7,-21 64,-58 74,-48c3,3 6,24 7,48c3,57 30,100 59,91c31,-10 115,-55 122,-65c2,-5 -4,-16 -15,-25c-16,-14 -17,-22 -10,-42c6,-14 7,-39 3,-56c-4,-17 -8,-38 -9,-46c-2,-8 -8,-30 -15,-48c-19,-50 -42,-38 -60,32c-17,60 -44,91 -54,59c-33,-117 -46,-193 -37,-216c12,-31 6,-54 -13,-54c-18,0 -86,-42 -86,-54c0,-5 -6,-9 -13,-9c-8,0 -24,-9 -37,-20c-13,-11 -31,-20 -41,-20c-10,0 -22,-6 -26,-14c-4,-7 -30,-23 -56,-35c-26,-12 -51,-28 -54,-36c-3,-8 -11,-15 -18,-15c-8,0 -23,-13 -35,-30c-12,-16 -27,-30 -34,-30c-21,0 -66,-40 -66,-59c0,-9 -9,-24 -20,-34c-11,-9 -20,-25 -20,-35c0,-10 -5,-23 -11,-29c-8,-8 -9,-25 -4,-50c5,-21 8,-41 7,-44c-2,-9 36,-48 81,-83c20,-16 37,-36 37,-43c0,-8 -20,-33 -45,-57c-25,-25 -45,-48 -45,-53c0,-7 -64,-63 -73,-63c-2,0 -23,-18 -47,-40c-23,-22 -52,-42 -62,-46c-20,-6 -58,-39 -58,-49c0,-7 -17,-28 -44,-55c-20,-20 -20,-20 2,-50c28,-37 28,-50 -3,-86c-14,-16 -25,-32 -25,-36c0,-4 -14,-15 -31,-24c-18,-9 -56,-40 -85,-70c-29,-30 -57,-54 -63,-54c-6,0 -20,-13 -32,-29c-12,-16 -30,-32 -41,-34c-11,-3 -22,-15 -25,-26c-3,-12 -12,-21 -19,-21c-8,0 -23,-14 -33,-31c-10,-17 -28,-37 -40,-45c-11,-8 -35,-43 -51,-77c-17,-34 -37,-71 -45,-81c-8,-11 -15,-29 -15,-41c0,-12 -5,-26 -10,-31c-8,-8 -7,-14 3,-22c11,-9 19,-6 39,16c27,29 98,128 98,137c0,12 44,65 54,65c6,0 19,14 28,30c9,17 32,39 51,50c18,11 40,31 47,45c7,13 22,27 33,31c19,6 37,19 88,64c48,42 58,50 68,50c5,0 19,13 31,29c11,17 30,33 41,36c43,14 69,120 44,178c-4,11 -3,23 4,30c6,6 11,7 11,3c0,-4 19,9 42,29c23,19 66,47 95,60c29,14 56,31 60,39c4,8 25,21 46,30c22,9 41,25 44,36c3,11 13,20 23,20c28,0 54,30 80,90c13,30 30,63 38,72c12,15 10,24 -17,71c-17,29 -41,58 -54,64c-15,7 -27,23 -30,40c-5,23 2,35 36,71c23,23 46,42 53,42c6,0 19,11 28,25c9,14 26,25 37,25c11,0 36,16 56,35c20,19 44,35 55,35c10,0 27,9 39,21c18,18 24,19 44,9c13,-7 28,-23 34,-36c6,-13 17,-24 25,-24c7,0 19,-7 26,-15c7,-8 21,-15 31,-15c11,0 19,-4 19,-9c0,-4 11,-6 25,-3c14,2 25,0 25,-6c0,-6 21,-18 48,-25c26,-8 65,-31 86,-51c46,-41 52,-43 59,-17c6,23 -7,47 -45,88c-31,32 -31,53 0,53c21,0 113,-52 131,-74c10,-12 17,-13 34,-4c18,9 24,7 43,-17c12,-15 26,-25 32,-21c13,8 21,65 10,72c-4,3 -8,14 -8,25c0,19 29,27 44,12c4,-5 12,-8 18,-8c6,0 16,-9 22,-20c6,-11 16,-23 22,-27c7,-4 15,-25 19,-45c4,-21 11,-44 17,-50c7,-9 7,-17 0,-26c-15,-18 -8,-73 9,-69c24,6 39,24 39,47c0,12 6,28 14,34c31,26 28,65 -9,136c-39,76 -43,95 -17,96c53,2 88,11 100,26c19,27 14,41 -18,48c-29,6 -52,25 -30,25c12,0 63,34 101,68c14,12 48,31 74,40c27,10 50,23 52,29c6,18 -72,39 -100,26c-46,-22 -73,-29 -94,-25c-33,5 -28,15 20,37c23,10 61,32 85,48c23,15 42,25 42,22c0,-3 14,2 32,11l31,16l-24,20c-18,14 -34,18 -66,14c-46,-6 -59,9 -21,23c13,5 23,17 23,27c0,38 103,68 227,66c107,-2 131,10 71,33c-21,9 -47,21 -58,27c-11,6 -53,12 -94,14c-40,1 -78,7 -83,12c-15,15 16,32 66,33c26,1 49,6 52,11c3,4 15,8 27,8c12,0 55,18 95,40c51,29 72,46 72,60c0,13 -7,20 -20,20c-11,0 -20,4 -20,8c0,10 135,82 154,82c15,0 86,79 86,96c0,22 -24,21 -59,-3c-18,-13 -39,-23 -46,-23c-7,0 -18,-7 -25,-15c-14,-16 -60,-21 -60,-6c0,19 57,71 90,82c19,7 51,24 70,39c60,46 84,47 175,2c44,-22 133,-66 198,-97c64,-32 117,-61 117,-65c0,-4 25,-34 55,-66c51,-56 54,-62 55,-111c0,-46 4,-56 30,-79c23,-21 28,-32 23,-55c-3,-16 -1,-35 4,-41c15,-19 26,-112 24,-204c-1,-44 3,-92 8,-107c12,-30 4,-56 -31,-100c-15,-19 -21,-38 -20,-65c2,-27 -5,-49 -23,-76c-14,-20 -25,-41 -25,-45c0,-5 -7,-14 -15,-21c-9,-7 -15,-29 -15,-54c0,-37 -5,-46 -56,-91c-52,-47 -61,-63 -63,-108c-1,-9 -10,-25 -21,-34c-11,-10 -20,-21 -20,-25c0,-5 -18,-26 -40,-48c-22,-22 -39,-43 -39,-47c6,-35 -6,-64 -41,-98c-21,-22 -39,-45 -40,-51c0,-26 -42,-93 -60,-99c-11,-4 -30,-27 -42,-53c-12,-26 -30,-53 -40,-60c-10,-7 -27,-30 -37,-51c-11,-20 -27,-43 -35,-50c-9,-7 -13,-17 -10,-22c3,-5 -6,-13 -19,-18c-14,-6 -28,-14 -31,-19c-3,-5 -31,-22 -62,-38c-31,-16 -63,-39 -71,-51c-9,-13 -21,-23 -28,-23c-7,0 -27,-16 -46,-35c-19,-19 -46,-40 -61,-46c-16,-6 -28,-16 -28,-22c0,-17 -44,-77 -56,-77c-13,0 -49,-39 -57,-62c-4,-10 -11,-18 -16,-18c-5,0 -12,-8 -16,-19c-3,-10 -18,-21 -33,-24c-16,-3 -34,-17 -42,-31c-7,-14 -22,-26 -32,-26c-10,0 -43,-25 -74,-55c-38,-39 -63,-55 -82,-56c-15,0 -54,-2 -87,-4c-33,-2 -82,-4 -110,-5c-65,-2 -113,-19 -121,-43c-6,-21 10,-37 37,-37c8,0 30,-15 47,-33l33,-34l-51,-26l-50,-26l-370,-7c-246,-5 -373,-4 -382,3c-16,13 -95,16 -102,4c-3,-4 3,-16 14,-26c11,-10 20,-26 20,-37c0,-10 4,-18 9,-18c4,0 20,-10 34,-22c47,-40 91,-73 92,-68c0,3 15,-9 33,-25c39,-37 35,-56 -14,-74c-53,-19 -134,-72 -134,-88c0,-7 5,-22 12,-33c7,-10 10,-21 8,-24c-3,-2 -52,-5 -110,-7c-104,-2 -184,-17 -247,-45c-17,-8 -35,-14 -40,-13c-4,1 -21,-3 -36,-9c-16,-7 -37,-12 -48,-12c-10,0 -27,-8 -37,-17c-39,-39 -117,-47 -142,-15c-10,13 -66,50 -116,75c-44,23 -56,25 -116,18c-59,-6 -73,-12 -103,-41c-50,-48 -46,-66 15,-74c27,-4 50,-11 50,-15c0,-5 17,-16 39,-24c38,-16 55,-44 45,-72c-4,-8 -31,-16 -70,-20c-35,-4 -66,-11 -69,-15c-9,-15 37,-44 67,-42c17,1 41,-4 54,-13c13,-8 32,-15 43,-15c11,0 24,-8 29,-17c17,-32 55,-200 49,-215c-3,-8 -26,-21 -52,-28c-99,-28 -180,30 -201,142c-22,119 -64,197 -142,264c-68,58 -186,77 -239,39c-17,-13 -17,-15 5,-38c13,-14 34,-28 46,-31c12,-3 38,-25 57,-48c31,-39 34,-49 35,-113c1,-53 6,-79 23,-105c11,-19 21,-42 21,-50c0,-8 22,-42 48,-75c27,-33 51,-68 55,-77c3,-10 11,-18 17,-18c18,0 50,-34 50,-53c0,-17 -6,-18 -60,-14c-42,3 -68,10 -83,24c-12,11 -31,25 -43,31c-11,6 -32,33 -45,59c-30,61 -48,83 -67,83c-7,0 -28,7 -45,14c-134,62 -213,66 -271,16c-17,-15 -41,-32 -52,-38c-25,-13 -38,-63 -21,-75c7,-4 33,-5 58,-2c25,3 49,2 53,-2c4,-5 11,-8 14,-8c12,-1 57,-28 64,-39c4,-6 8,-23 8,-37c0,-27 53,-84 102,-110c12,-6 38,-25 56,-40c18,-16 39,-29 46,-29c14,0 30,-29 21,-38c-3,-3 -28,0 -56,6c-28,7 -74,9 -104,6c-47,-6 -54,-4 -64,15c-7,11 -19,21 -28,21c-8,0 -31,9 -50,21c-43,27 -63,19 -63,-24c0,-85 51,-164 128,-199c23,-11 48,-28 55,-39c9,-14 23,-19 55,-19c24,0 53,-5 64,-11c11,-6 50,-14 86,-17c96,-10 100,-25 26,-103c-88,-93 -156,-159 -164,-159c-4,0 -11,-15 -14,-33c-3,-19 -17,-44 -30,-56c-14,-13 -30,-36 -37,-53c-7,-16 -28,-47 -47,-68c-18,-21 -33,-41 -32,-45c0,-3 -13,-22 -29,-41c-17,-19 -31,-41 -31,-49c0,-22 -118,-105 -151,-105c-34,0 -58,-33 -37,-53c32,-29 87,-49 120,-43c126,24 158,28 158,18c0,-5 -7,-13 -16,-16c-14,-5 -14,-9 -3,-22c13,-16 56,-15 107,1c31,10 30,-18 -3,-57c-14,-16 -25,-36 -25,-43c0,-8 -11,-26 -25,-41c-14,-15 -30,-44 -35,-65c-6,-21 -15,-41 -20,-44c-6,-3 -10,-16 -10,-27c0,-11 -9,-35 -19,-52c-10,-17 -24,-58 -31,-91c-7,-33 -19,-64 -27,-70c-7,-6 -19,-29 -26,-51c-7,-23 -30,-74 -52,-113c-35,-62 -43,-71 -63,-66c-20,5 -23,3 -18,-13c8,-24 -9,-38 -57,-46c-21,-4 -48,-17 -60,-29l-21,-21l35,-14c18,-8 54,-17 79,-19c50,-4 198,21 214,37c5,5 14,10 18,10c14,0 9,-29 -7,-37c-9,-5 -12,-17 -8,-31c6,-23 6,-23 70,-24c38,0 43,-3 43,-23c0,-12 -6,-28 -14,-34c-19,-16 -40,-165 -27,-190c18,-33 14,-245 -6,-304c-12,-35 -19,-46 -21,-32c-9,44 -22,37 -22,-12c0,-58 -31,-138 -60,-153c-25,-14 -25,-26 -1,-33c12,-3 22,1 25,9c3,8 13,14 23,14c10,0 34,13 53,28c40,33 80,56 86,49c3,-2 1,-23 -5,-46c-10,-44 -9,-45 30,-55c21,-5 28,-2 32,14c3,11 13,20 24,20c10,0 32,17 50,37c27,33 32,36 39,20c3,-10 0,-37 -7,-60c-20,-60 -18,-317 4,-427c45,-235 51,-278 39,-333c-17,-78 -22,-117 -16,-117c13,0 74,53 74,65c0,6 9,20 20,30c11,10 20,23 20,29c0,6 16,28 35,48c19,20 30,38 25,40c-6,2 0,25 14,53c13,28 26,59 30,69c12,34 19,8 17,-61c0,-38 1,-84 5,-104c4,-31 9,-36 29,-33c36,3 44,11 51,49c3,19 10,35 16,35c5,0 14,14 19,30c18,50 44,39 69,-27c12,-32 34,-85 49,-118c74,-160 94,-220 115,-358c15,-96 16,-111 3,-131c-9,-12 -16,-31 -17,-42c-4,-30 11,-84 24,-84c6,0 37,31 69,68c75,88 70,81 87,130c7,24 19,46 27,50c12,7 21,57 26,141c3,48 21,49 42,1c10,-22 21,-40 26,-40c4,0 15,-23 24,-50c9,-28 20,-50 25,-50c19,0 31,66 33,179c0,66 3,121 7,121c3,0 25,-39 50,-87c24,-49 50,-101 59,-118c8,-16 25,-38 38,-48c13,-10 23,-23 23,-29c0,-6 12,-27 26,-46c24,-31 25,-38 16,-70c-16,-53 -30,-128 -37,-195c-3,-32 -14,-77 -25,-100c-11,-22 -20,-47 -20,-56c0,-21 -38,-97 -56,-111c-7,-7 -14,-19 -14,-27c0,-8 -8,-27 -18,-41c-38,-55 -38,-55 7,-49c23,2 50,12 60,21c9,9 22,16 27,16c5,0 17,9 27,20c9,11 24,20 32,20c9,0 21,11 27,25c6,14 19,25 28,25c10,0 20,9 23,21c3,11 15,23 26,26c14,3 21,13 21,29c0,13 9,28 19,34c17,9 20,6 23,-18c3,-30 -31,-173 -51,-210c-10,-18 -9,-23 3,-28c16,-6 73,39 81,65c2,9 14,22 25,29c18,11 22,9 32,-13c8,-18 8,-31 0,-48c-6,-12 -13,-89 -16,-172c-5,-153 -24,-246 -61,-298c-8,-12 -15,-34 -15,-49c0,-14 -5,-39 -10,-54c-13,-34 -11,-36 28,-25c33,10 117,89 126,119c7,21 54,72 66,72c17,0 11,-28 -7,-40c-15,-10 -15,-11 -1,-6c24,7 45,-23 52,-78c3,-27 13,-60 21,-72c12,-19 24,-149 15,-179c-13,-49 26,-81 61,-49c10,9 19,21 19,26c0,4 14,27 30,50c17,22 30,45 30,50c0,4 13,27 30,50c18,25 30,53 30,73c0,52 44,77 56,31c3,-14 12,-27 20,-30c8,-3 14,-15 14,-26c0,-17 34,-112 46,-128c1,-2 12,2 24,8c18,10 21,17 16,45c-4,21 -2,36 5,41c15,9 39,-22 39,-49c0,-10 11,-32 25,-49c13,-16 29,-46 35,-67c5,-21 20,-51 32,-67c19,-23 23,-41 23,-116c1,-95 8,-115 26,-75c6,13 22,31 35,38c14,7 29,28 36,51c6,21 17,38 23,38c19,0 27,-43 31,-169c2,-63 8,-119 13,-124c12,-12 61,28 61,49c0,7 4,14 8,16c11,4 52,106 52,129c0,34 18,29 32,-8c8,-25 13,-83 12,-170c-1,-118 1,-133 16,-133c20,0 62,44 81,84c34,72 54,14 24,-69c-8,-22 -15,-50 -15,-63c0,-31 -55,-134 -80,-150c-11,-7 -20,-19 -20,-27c0,-15 -74,-75 -92,-75c-16,0 -78,-32 -78,-40c0,-15 60,-32 90,-26c17,3 54,17 84,31c29,14 60,25 68,25c8,0 42,27 75,61c33,34 63,57 66,52c3,-5 -5,-31 -19,-58c-29,-61 -30,-75 -4,-75c11,0 20,4 20,8c0,5 18,17 40,27c54,24 120,87 120,113c0,12 4,22 10,22c10,0 60,99 60,119c0,6 4,19 9,29c31,56 42,126 40,249c-1,71 -6,134 -12,141c-5,7 -7,16 -3,19c10,10 39,-10 52,-35c17,-35 47,-63 56,-54c5,5 9,33 9,63c2,66 8,78 23,47c6,-12 18,-23 26,-23c43,0 52,135 12,178c-12,13 -22,28 -22,34c0,6 -15,38 -34,71c-25,45 -31,63 -22,72c8,8 7,10 -6,5c-17,-7 -108,71 -108,93c0,6 -10,14 -22,18c-29,8 -59,34 -53,45c7,10 63,3 79,-10c20,-17 138,-81 148,-81c6,0 26,-13 45,-30c33,-30 83,-41 83,-19c0,10 -37,58 -88,114c-10,11 -26,36 -35,55c-10,19 -22,42 -27,50c-14,22 -36,78 -39,100c0,6 -6,10 -12,10c-5,0 -7,-4 -4,-10c15,-25 -12,-6 -54,38c-54,55 -96,86 -131,95c-40,11 -56,25 -44,37c7,7 26,6 65,-6c76,-23 129,-46 129,-56c0,-4 8,-8 19,-8c10,0 35,-7 54,-15c81,-34 76,-14 -22,82c-87,86 -140,131 -180,152c-14,7 -30,19 -36,25c-5,7 -25,16 -44,22c-19,5 -39,18 -45,29c-6,11 -15,23 -20,27c-5,3 -17,38 -27,76c-10,39 -30,97 -45,129c-40,83 -40,93 -3,93c22,0 32,-5 36,-20c6,-24 12,-24 38,-5c14,12 34,14 80,9c49,-5 64,-3 77,10c18,18 54,21 63,6c3,-5 15,-10 25,-10c10,0 25,-7 34,-15c8,-8 24,-15 36,-15c11,0 37,-7 57,-15c20,-9 43,-13 52,-10c9,2 27,-1 41,-8c34,-17 265,-23 275,-6c5,6 -12,31 -41,59c-88,86 -114,117 -114,134c0,22 40,21 88,-2c41,-20 82,-18 82,4c0,8 -18,32 -39,53c-22,22 -47,52 -57,66c-15,23 -15,28 -3,36c8,5 23,6 34,3c32,-10 153,-6 175,6c37,20 258,35 505,35c169,-1 244,3 252,11c16,16 2,66 -23,79c-11,6 -35,22 -54,37c-20,15 -53,35 -75,45c-22,10 -51,26 -65,35c-14,10 -58,24 -99,33c-119,25 -120,34 -3,74c46,16 86,31 88,34c3,3 0,14 -7,26c-7,11 -11,22 -9,23c38,27 120,70 141,75c16,3 34,12 40,19c6,8 17,14 24,14c8,0 26,11 42,24c15,13 42,27 60,30c17,4 37,14 44,23c7,8 22,19 34,24c20,9 38,20 87,52c14,9 39,18 55,19c15,1 34,8 41,15c7,7 22,13 32,13c17,0 96,32 150,59c26,14 16,34 -20,44c-19,5 -38,13 -41,19c-4,6 -69,11 -158,11c-103,2 -151,6 -151,13c0,6 10,24 21,39c12,15 23,38 25,52c1,14 12,32 24,40c32,22 39,52 22,87c-12,22 -12,31 -3,34c13,4 51,74 51,95c0,19 24,67 33,67c5,0 5,4 2,10c-3,5 0,24 8,42c36,84 47,117 51,163c3,28 15,68 26,90c11,21 20,49 20,62c0,12 8,30 18,40c11,10 22,26 25,36c4,9 13,17 21,17c14,0 36,28 36,46c0,16 -120,-5 -146,-25c-15,-12 -35,-21 -44,-21c-10,0 -32,-14 -50,-30c-18,-16 -36,-30 -41,-30c-5,0 -16,-11 -25,-25c-24,-37 -48,-33 -40,7c6,33 9,73 7,95c-1,6 -11,13 -23,15c-23,3 -23,6 -25,153c-1,83 -6,175 -11,205c-6,30 -9,96 -8,145c1,76 6,99 29,146c28,57 35,103 17,114c-5,3 -10,3 -10,-2c0,-12 -59,-43 -81,-43c-10,0 -19,-6 -19,-14c0,-8 -27,-36 -60,-61c-36,-28 -60,-54 -60,-65c0,-11 -8,-24 -17,-29c-21,-11 -43,-55 -68,-134c-25,-79 -36,-93 -61,-77c-10,6 -30,30 -44,52c-14,23 -29,46 -35,52c-23,26 -55,76 -55,86c0,5 -4,10 -10,10c-5,0 -10,7 -10,16c0,19 -104,124 -143,143c-15,8 -45,29 -65,46c-25,21 -48,32 -72,32c-48,1 -175,76 -203,119c-12,19 -26,34 -31,34c-5,0 -14,8 -21,17c-11,15 -15,15 -29,4c-10,-9 -13,-18 -7,-25c5,-6 11,-46 13,-88c3,-43 10,-84 17,-92c7,-8 11,-29 9,-47l-3,-32l-31,26c-43,36 -64,35 -64,-3c0,-16 -2,-30 -5,-30c-12,0 -101,33 -105,40c-3,4 -23,13 -45,20c-22,7 -47,18 -55,25c-8,7 -40,20 -70,30c-30,10 -59,21 -65,26c-5,5 -17,9 -26,9c-10,0 -39,18 -64,40c-25,22 -51,40 -57,40c-5,0 -21,9 -35,19c-24,20 -53,19 -53,-2c0,-12 46,-141 61,-169c5,-10 9,-22 9,-28c0,-16 -40,-12 -46,5c-3,8 -14,17 -25,20c-10,4 -19,12 -19,20c0,17 -53,27 -62,12c-4,-7 -5,-19 -2,-27c4,-8 12,-33 18,-55c6,-22 18,-45 26,-52c8,-7 13,-13 10,-13c-42,-8 -568,-7 -581,1c-29,15 -112,16 -117,1c-7,-21 63,-78 143,-117c41,-20 75,-40 75,-45c0,-5 -12,-12 -27,-16c-16,-3 -41,-10 -57,-15c-16,-5 -50,-9 -75,-9c-55,0 -119,-34 -86,-46c28,-9 137,-54 155,-64c22,-11 18,-34 -5,-38c-46,-8 -185,-54 -190,-63c-4,-5 -16,-9 -28,-9c-13,0 -40,-9 -62,-20c-22,-11 -48,-20 -58,-20c-10,0 -33,-6 -50,-14c-48,-21 -179,-27 -212,-10c-38,20 -54,18 -66,-10c-8,-18 -7,-30 5,-54c9,-17 16,-40 16,-51c0,-13 15,-29 45,-47c25,-14 45,-30 45,-35c0,-6 15,-16 33,-24c49,-20 61,-38 39,-57c-9,-9 -27,-19 -38,-22c-23,-7 -39,-56 -22,-67c5,-3 -24,-40 -66,-82c-42,-42 -76,-80 -76,-84c0,-4 -16,-25 -35,-47c-19,-21 -35,-41 -35,-45c0,-3 -4,-12 -9,-20c-15,-24 -127,79 -135,124c-5,23 -20,45 -46,68c-33,28 -40,40 -40,69c0,27 -5,37 -19,41c-15,3 -20,18 -26,66c-5,41 -13,65 -25,74c-13,9 -18,30 -22,79c-3,54 -9,73 -28,93c-21,22 -22,29 -12,45c16,26 15,86 -3,135c-9,25 -14,81 -15,152c0,112 0,112 41,190c25,49 38,87 36,102c-3,14 7,46 24,78c16,30 29,63 29,72c0,21 47,114 79,158c20,26 22,38 17,76c-6,38 -4,47 13,59c11,8 25,26 32,41c7,15 16,27 20,27c5,0 12,15 17,32c5,21 15,34 28,36c25,5 73,58 81,91c10,41 42,88 63,94c11,3 24,16 29,30c5,14 14,26 20,28c6,2 12,14 14,26c4,26 45,73 63,73c7,0 21,15 33,33c22,36 80,83 97,79c6,-1 32,18 58,43c27,25 57,45 67,45c11,0 22,7 25,15c4,8 14,15 24,15c18,0 37,18 55,52c5,11 43,37 83,59c40,21 82,48 92,61c10,13 47,36 83,53c37,17 68,37 70,47c4,13 15,18 40,18c19,0 65,15 106,36c46,23 78,33 91,29c13,-4 30,1 46,14c36,28 50,26 91,-9c23,-21 41,-29 56,-25c49,12 176,21 193,14c35,-14 99,-9 134,9l34,19l42,-29c44,-30 101,-37 122,-16c7,7 40,15 74,19c124,15 207,38 263,75c30,20 61,34 69,31c8,-3 19,-23 26,-44c15,-45 44,-97 79,-138c14,-17 35,-43 46,-58c11,-15 25,-27 32,-27c6,0 18,-9 25,-19c8,-11 27,-21 42,-24c15,-2 36,-13 45,-24c9,-11 26,-26 39,-32c12,-7 22,-18 22,-26c0,-17 -41,-82 -71,-112c-33,-32 -19,-53 35,-53c25,0 48,5 51,10c4,6 24,22 46,35c22,15 48,43 60,67c12,24 25,45 28,48c4,3 15,32 26,65c10,33 24,65 31,70c12,10 14,75 3,75c-4,0 -9,8 -11,18c-4,12 -22,23 -52,32c-26,7 -49,17 -52,21c-3,5 -21,9 -40,9c-45,0 -103,30 -131,69c-52,70 -7,85 50,16c28,-33 45,-45 65,-45c15,0 45,-9 68,-19c23,-11 53,-17 68,-14c17,4 33,-1 45,-11c11,-10 22,-13 25,-8c3,6 29,13 56,17c27,4 53,11 56,16c3,5 9,7 14,4c5,-3 27,-1 48,5c22,5 61,12 87,14c26,3 55,11 64,19c33,29 51,28 92,-6c21,-17 39,-38 39,-45c0,-8 15,-35 32,-60c18,-26 34,-49 35,-51c1,-2 9,2 18,9c18,15 21,134 3,177c-12,31 -14,39 -16,68c-1,11 -38,54 -82,96c-77,73 -82,76 -131,78c-37,1 -62,-5 -86,-19c-58,-34 -144,-60 -218,-67c-126,-11 -122,-11 -199,28c-50,25 -68,51 -47,72c7,7 14,7 24,-1c8,-7 17,-9 21,-5c3,4 61,8 129,9c102,1 136,6 207,29c55,18 92,36 103,52c10,12 27,23 38,23c11,0 40,20 64,45c25,24 58,51 74,60c16,8 32,24 36,35c3,11 10,20 15,20c5,0 18,9 29,21c27,30 83,40 184,32c84,-6 87,-5 87,15c0,12 -9,26 -20,32c-11,6 -20,17 -20,25c0,9 -12,23 -28,33c-15,9 -42,28 -61,42c-23,18 -46,25 -79,26c-26,1 -63,2 -82,3c-61,4 -160,-30 -160,-54c0,-8 -4,-15 -10,-15c-5,0 -21,-22 -35,-50c-14,-27 -34,-54 -45,-60c-11,-6 -20,-16 -20,-23c0,-19 -60,-55 -144,-87c-89,-35 -125,-37 -181,-10c-22,10 -43,16 -48,13c-12,-7 -37,17 -37,37c0,10 -6,20 -12,23c-18,6 19,47 42,47c15,0 47,25 116,90c12,11 26,20 33,20c6,0 14,7 17,15c3,8 15,17 27,21c19,6 55,43 87,89c8,12 27,40 41,61c15,22 36,48 47,60c11,11 28,36 37,55c24,48 45,69 67,69c11,0 22,9 25,20c6,22 24,28 93,32c28,2 45,8 45,16c0,6 -3,11 -7,10c-4,-2 -14,6 -22,17c-9,11 -16,16 -16,11c0,-5 -7,-3 -15,4c-8,6 -19,9 -25,5c-5,-3 -10,0 -10,7c0,40 -145,46 -179,7c-8,-11 -21,-19 -27,-19c-6,0 -28,-14 -50,-30c-32,-26 -45,-30 -87,-29c-56,3 -72,-11 -83,-70c-4,-20 -10,-40 -14,-46c-4,-5 -10,-26 -14,-45c-4,-25 -22,-51 -59,-87c-72,-71 -146,-88 -83,-20c26,29 56,83 56,103c0,7 7,17 15,21c21,12 28,238 8,255c-17,13 -2,42 44,86c42,40 52,40 60,2c3,-17 10,-33 15,-36c12,-8 56,33 64,60c9,29 56,95 93,131c17,17 31,36 31,43c0,6 6,12 13,12c7,0 26,12 43,28c17,15 41,34 54,42c109,72 185,137 194,168c4,11 18,27 31,36c16,10 25,26 25,41c0,14 5,25 11,25c5,0 15,13 20,29c7,20 17,29 33,28c32,0 73,29 85,61c11,27 18,40 55,95l19,29l23,-28c13,-15 24,-33 24,-39c0,-7 6,-18 14,-24c8,-7 17,-25 21,-40c3,-16 15,-38 25,-49c11,-12 20,-26 20,-32c0,-16 61,-80 76,-80c7,0 28,-13 46,-29c20,-16 50,-31 75,-35c42,-6 43,-6 39,21c-5,36 -16,63 -26,63c-5,0 -11,14 -15,30c-4,18 -11,27 -18,23c-6,-4 -8,0 -4,10c3,9 2,19 -4,23c-7,4 -8,58 -3,157c7,158 -2,242 -31,300c-8,16 -15,43 -15,59c0,18 -5,28 -15,28c-8,0 -15,9 -15,19c0,10 -13,46 -29,78c-17,33 -40,88 -52,124c-12,35 -26,70 -32,77c-5,6 -6,12 -2,12c4,0 3,6 -3,13c-5,6 -13,33 -17,60c-7,43 -6,47 14,47c12,0 50,-29 93,-70c101,-98 109,-105 145,-119c17,-7 34,-19 37,-27c3,-8 16,-14 30,-14c14,0 28,-4 31,-10c8,-14 58,-13 72,1c14,14 2,51 -31,94c-13,17 -33,55 -46,85c-12,30 -28,67 -36,81c-7,14 -16,45 -20,68c-4,23 -13,49 -21,56c-7,8 -12,18 -11,22c3,14 -25,98 -36,105c-5,3 -11,21 -12,39c-1,17 -7,41 -13,53c-35,72 -68,156 -61,156c5,0 15,3 24,6c12,4 21,-6 35,-37c45,-102 70,-98 72,10c1,40 -3,76 -8,80c-15,9 -26,68 -15,75c6,3 22,0 36,-8c39,-20 214,-20 244,0c12,8 20,19 17,24c-4,6 -1,10 4,10c12,0 -25,40 -36,40c-5,0 -33,23 -63,50c-30,27 -59,53 -65,58c-5,5 -19,21 -30,37c-11,15 -32,41 -47,58c-16,18 -28,35 -28,38c0,11 -158,166 -194,191c-17,12 -33,25 -36,28c-3,3 -17,11 -32,17c-16,7 -28,16 -28,20c0,18 19,36 38,38c64,4 202,159 218,246c4,19 11,39 16,45c5,7 8,16 7,20c-1,5 3,22 9,37c28,67 8,119 -60,154c-51,26 -89,31 -152,19c-32,-6 -38,-5 -33,8c3,8 -3,26 -14,40c-19,24 -21,24 -40,8c-11,-9 -27,-18 -37,-18c-9,-1 -33,-5 -53,-9c-34,-6 -37,-5 -42,22c-4,20 1,39 19,65c25,39 31,73 14,83c-5,3 -10,14 -10,24c0,10 -12,28 -26,42c-22,21 -36,24 -105,25l-80,1l-31,-37c-16,-21 -38,-40 -48,-43c-13,-3 -19,-19 -24,-63c-3,-33 -7,-65 -8,-71c-2,-16 3,-17 -108,7c-51,11 -109,20 -127,20l-34,0l3,78c2,70 4,79 30,102c15,13 28,35 28,47c0,13 5,23 10,23c6,0 10,7 10,17c0,15 -1,15 -18,0c-10,-10 -26,-17 -35,-17c-10,0 -26,-5 -37,-12c-10,-7 -23,-8 -27,-4c-4,5 -3,11 3,13c6,2 28,19 48,38c21,19 46,37 57,40c15,5 17,10 9,25c-15,27 -44,33 -85,16c-24,-11 -43,-12 -59,-6c-13,5 -49,6 -80,3c-31,-3 -75,-1 -98,6c-24,6 -93,13 -155,15c-61,2 -116,7 -123,11c-6,4 -32,2 -56,-5c-25,-7 -48,-9 -52,-5c-4,4 16,28 43,53c28,26 54,55 57,64c10,26 -25,32 -64,11c-27,-14 -55,-17 -150,-16c-65,1 -126,7 -137,12c-11,6 -44,11 -75,11c-30,0 -57,4 -61,9c-7,13 41,58 85,79c19,9 62,42 95,74c32,32 62,58 66,58c3,0 19,19 35,42c16,23 49,63 74,89c25,26 44,52 42,58c-2,6 1,11 7,11c6,0 26,32 45,70c18,39 38,76 43,83c13,18 30,75 38,127c4,25 12,48 17,51c6,4 13,28 15,53l6,47l-84,-3c-82,-3 -84,-4 -81,-27c4,-29 -15,-77 -45,-114c-13,-16 -23,-37 -23,-48c0,-11 -7,-22 -15,-25c-8,-4 -15,-12 -15,-19c0,-6 -8,-19 -17,-28c-10,-9 -27,-33 -38,-54c-11,-21 -28,-44 -37,-51c-10,-7 -18,-21 -18,-31c0,-22 -29,-36 -43,-22c-5,5 -12,37 -16,71c-8,65 -19,80 -62,80c-28,0 -46,-31 -84,-148c-12,-34 -34,-77 -49,-95c-16,-17 -38,-51 -48,-74c-10,-24 -23,-43 -29,-43c-5,0 -19,-15 -30,-34c-26,-45 -49,-53 -71,-26c-12,15 -16,30 -11,49c5,23 4,24 -9,13c-9,-7 -29,-12 -44,-10c-32,2 -74,-17 -74,-34c0,-11 -6,-18 -78,-93c-39,-41 -54,-52 -107,-81c-16,-9 -38,-25 -48,-35c-10,-11 -26,-19 -37,-19c-10,0 -22,-4 -25,-10c-3,-5 -14,-10 -23,-10c-9,0 -28,-7 -42,-15c-53,-30 -72,-36 -85,-25c-10,9 -12,7 -9,-7c4,-14 -1,-19 -23,-21c-15,-1 -34,-10 -40,-19c-7,-9 -13,-14 -13,-10c0,4 -15,1 -34,-7c-39,-16 -96,-64 -96,-81c0,-17 -21,-34 -36,-28c-16,6 -7,31 23,63c59,63 68,71 82,68c10,-2 20,8 26,27c6,18 23,36 41,45c16,8 46,27 66,43c19,15 40,27 45,27c6,0 16,6 22,14c7,8 24,17 39,21c26,6 126,75 147,100c6,7 24,21 41,31c34,21 112,84 156,127c16,15 33,27 38,27c6,0 10,6 10,13c0,13 56,67 71,67c5,0 15,12 23,28c8,15 23,36 35,46c12,11 21,24 21,31c0,7 22,37 50,69c30,35 53,72 60,99c13,50 29,85 50,111c8,10 15,31 15,47l0,29l-75,0c-74,0 -75,-1 -96,-33c-40,-61 -84,-144 -84,-159c0,-9 -18,-33 -40,-54c-22,-22 -40,-42 -40,-46c0,-12 -113,-127 -120,-123c-8,5 4,78 18,116c35,85 54,174 47,216c-10,71 -22,83 -77,83c-27,0 -49,-1 -49,-2zm2285,-1487c3,-5 -1,-11 -9,-15c-9,-3 -12,-12 -9,-21c4,-9 -6,-41 -21,-71c-24,-48 -29,-52 -40,-38c-7,11 -19,15 -29,11c-19,-8 -12,-27 10,-27c34,0 10,-18 -28,-22c-48,-5 -98,10 -98,29c0,15 51,43 78,43c11,0 22,7 25,15c4,8 22,21 42,29c20,9 34,20 30,25c-3,6 0,19 7,31c13,21 33,26 42,11zm-1911,-7041c33,-6 65,-9 73,-6c7,3 19,-3 26,-13c7,-10 26,-26 41,-36c15,-10 34,-30 42,-46c9,-17 31,-33 60,-44c30,-12 45,-24 45,-35c0,-10 12,-25 26,-35c23,-15 26,-22 21,-56c-4,-33 -1,-41 20,-57c35,-26 33,-69 -5,-123c-18,-24 -38,-65 -46,-91c-8,-26 -32,-69 -53,-95c-22,-27 -42,-55 -46,-65c-6,-16 -63,-35 -75,-24c-3,4 -11,-6 -18,-21c-7,-18 -29,-37 -60,-52c-27,-13 -65,-32 -85,-41c-19,-10 -53,-21 -75,-25c-21,-4 -52,-16 -69,-28c-17,-12 -56,-25 -90,-29c-130,-18 -242,-29 -280,-29c-22,0 -56,0 -75,0c-19,0 -55,5 -80,10c-25,6 -85,16 -135,22c-49,7 -103,21 -120,31c-16,10 -38,18 -48,18c-9,0 -25,4 -35,9c-9,6 -33,12 -53,16c-20,3 -44,14 -53,24c-16,18 -15,22 20,77c21,33 41,61 46,62c4,2 8,10 8,18c0,8 17,31 39,52c21,20 41,47 45,59c4,12 29,41 57,63c34,29 49,49 49,66c0,13 5,24 10,24c6,0 15,11 20,24c4,13 20,26 34,30c24,6 78,50 155,127c20,19 43,40 51,45c9,5 23,21 32,36c10,15 31,29 48,33c17,4 34,13 37,20c2,8 21,19 41,26c19,6 49,20 66,29c17,10 71,23 121,30c49,6 91,13 93,15c7,6 117,-3 175,-15z" id="svg_32" stroke="#f2d560" fill="#f8c962"/>
    <path d="m255287.958596,-162418.828414c0,-11 3,-14 6,-6c3,7 2,16 -1,19c-3,4 -6,-2 -5,-13z" id="svg_33" stroke="#f2d560" fill="#f8c962"/>
    <path d="m255781.958596,-162602.828414c-3,-5 -1,-10 4,-10c6,0 11,5 11,10c0,6 -2,10 -4,10c-3,0 -8,-4 -11,-10z" id="svg_34" stroke="#f2d560" fill="#f8c962"/>
    <path d="m255556.958596,-162842.828414c0,-5 5,-10 11,-10c5,0 7,5 4,10c-3,6 -8,10 -11,10c-2,0 -4,-4 -4,-10z" id="svg_35" stroke="#f2d560" fill="#f8c962"/>
    <path d="m255426.958596,-162962.828414c0,-5 5,-10 10,-10c6,0 10,5 10,10c0,6 -4,10 -10,10c-5,0 -10,-4 -10,-10z" id="svg_36" stroke="#f2d560" fill="#f8c962"/>
    <path d="m255101.958596,-163172.828414c-3,-5 -2,-10 4,-10c5,0 13,5 16,10c3,6 2,10 -4,10c-5,0 -13,-4 -16,-10z" id="svg_37" stroke="#f2d560" fill="#f8c962"/>
    <path d="m255501.958596,-166542.828414c-3,-5 -1,-10 4,-10c6,0 11,5 11,10c0,6 -2,10 -4,10c-3,0 -8,-4 -11,-10z" id="svg_38" stroke="#f2d560" fill="#f8c962"/>
    <path d="m256976.958596,-166913.828414c0,-5 5,-7 10,-4c6,3 10,8 10,11c0,2 -4,4 -10,4c-5,0 -10,-5 -10,-11z" id="svg_39" stroke="#f2d560" fill="#f8c962"/>
    <path d="m255616.958596,-169942.828414c0,-5 5,-10 10,-10c6,0 10,5 10,10c0,6 -4,10 -10,10c-5,0 -10,-4 -10,-10z" id="svg_40" stroke="#f2d560" fill="#f8c962"/>
    <path d="m255896.958596,-169986.828414c0,-8 7,-16 15,-20c17,-6 18,-4 9,18c-8,20 -24,21 -24,2z" id="svg_41" stroke="#f2d560" fill="#f8c962"/>
    <path d="m254496.958596,-170132.828414c0,-5 5,-10 10,-10c6,0 10,5 10,10c0,6 -4,10 -10,10c-5,0 -10,-4 -10,-10z" id="svg_42" stroke="#f2d560" fill="#f8c962"/>
    <path d="m254496.958596,-170242.828414c0,-5 5,-10 10,-10c6,0 10,5 10,10c0,6 -4,10 -10,10c-5,0 -10,-4 -10,-10z" id="svg_43" stroke="#f2d560" fill="#f8c962"/>
    <path d="m253621.958596,-170772.828414c-3,-5 1,-10 9,-10c9,0 16,5 16,10c0,6 -4,10 -9,10c-6,0 -13,-4 -16,-10z" id="svg_44" stroke="#f2d560" fill="#f8c962"/>
    <path d="m255324.958596,-172839.828414c6,-2 18,-2 25,0c6,3 1,5 -13,5c-14,0 -19,-2 -12,-5z" id="svg_45" stroke="#f2d560" fill="#f8c962"/>
    <path d="m255591.958596,-173462.828414c3,-5 8,-10 11,-10c2,0 4,5 4,10c0,6 -5,10 -11,10c-5,0 -7,-4 -4,-10z" id="svg_46" stroke="#f2d560" fill="#f8c962"/>
    <path d="m255816.958596,-173703.828414c0,-5 5,-7 10,-4c6,3 10,8 10,11c0,2 -4,4 -10,4c-5,0 -10,-5 -10,-11z" id="svg_47" stroke="#f2d560" fill="#f8c962"/>
    <path d="m255508.958596,-173754.828414c5,-15 28,-23 28,-10c0,5 -7,13 -16,16c-10,4 -14,1 -12,-6z" id="svg_48" stroke="#f2d560" fill="#f8c962"/>
    <path d="m255436.958596,-174772.828414c0,-19 3,-21 12,-12c9,9 9,15 0,24c-9,9 -12,7 -12,-12z" id="svg_49" stroke="#f2d560" fill="#f8c962"/>
   </g>
  </g>
  <g id="svg_70" transform="rotate(178.3461151123047 365.9772033691406,194.00592041015628) " stroke="null">
   <g fill="#b98d53" id="svg_69" transform="matrix(0.009660026858745651,0,0,-0.011486929698527795,-2248.4806924158042,-1735.9310746281549) ">
    <path d="m270987.384831,-161665.440218c-1,-2 -3,-12 -5,-23c-6,-35 -9,-50 -16,-61c-4,-6 -13,-41 -20,-78c-7,-36 -16,-66 -21,-66c-4,0 -5,-4 -2,-10c3,-5 -1,-20 -9,-33c-9,-12 -17,-32 -19,-43c-1,-11 -12,-33 -24,-48c-12,-15 -19,-34 -16,-42c3,-8 1,-14 -5,-14c-5,0 -19,-19 -30,-42c-11,-24 -38,-58 -61,-77c-23,-19 -41,-40 -41,-46c0,-7 -8,-19 -18,-28c-24,-22 -42,-5 -42,39c0,40 -16,84 -36,98c-8,7 -16,20 -18,31c-2,15 -12,21 -37,23c-30,2 -35,-1 -47,-30c-7,-18 -21,-51 -31,-73c-10,-22 -19,-44 -21,-50c-6,-25 -41,-85 -54,-92c-8,-4 -40,-37 -71,-73c-33,-38 -65,-65 -77,-66c-11,-1 -32,-13 -47,-27c-14,-15 -43,-40 -63,-58c-21,-17 -35,-35 -32,-40c3,-5 -11,-25 -30,-45c-20,-21 -36,-43 -36,-51c0,-24 -1,-28 -17,-45c-10,-11 -17,-42 -19,-85c-4,-76 -17,-110 -48,-119c-29,-9 -86,-61 -125,-115c-14,-19 -51,-56 -83,-84c-110,-94 -128,-112 -128,-134c0,-26 -82,-111 -108,-111c-10,0 -32,-11 -48,-25c-16,-14 -35,-25 -41,-25c-7,0 -13,-4 -13,-10c0,-5 -6,-10 -12,-10c-7,0 -27,-14 -45,-30c-18,-17 -35,-30 -38,-30c-8,0 -60,-37 -116,-82c-26,-21 -50,-38 -53,-38c-3,0 -15,-9 -26,-20c-12,-12 -25,-18 -31,-14c-15,9 -31,53 -36,97c-2,22 -9,51 -14,65l-10,27l-19,-25c-12,-15 -20,-41 -20,-67c0,-61 -21,-54 -43,13c-16,52 -16,58 0,107c9,29 28,66 42,84c34,42 83,110 99,140c8,13 20,27 29,30c8,3 46,38 85,77c38,39 75,71 80,71c6,0 14,7 17,16c3,8 27,35 54,59c26,24 47,48 47,53c0,5 6,23 14,40c26,61 39,144 32,212c-9,85 -45,139 -119,175c-47,22 -67,25 -209,30l-156,5l-41,37c-23,20 -41,43 -41,50c0,8 -5,19 -12,26c-9,9 -14,7 -24,-6c-18,-23 -17,-42 5,-88c21,-42 38,-59 88,-87c25,-14 57,-17 171,-17c131,0 142,-2 167,-22c56,-47 65,-59 65,-82c0,-14 7,-32 16,-41c11,-10 14,-26 11,-48c-8,-48 -12,-66 -19,-73c-4,-3 -4,-12 -1,-20c3,-8 0,-14 -6,-14c-6,0 -11,-7 -11,-15c0,-8 -11,-25 -25,-39c-14,-14 -25,-34 -25,-46c0,-12 -9,-24 -23,-29c-13,-5 -34,-24 -48,-41c-13,-18 -32,-40 -42,-49c-52,-47 -69,-61 -76,-61c-4,0 -36,-31 -72,-69c-75,-80 -101,-111 -93,-111c3,0 -2,-7 -10,-16c-9,-8 -17,-22 -17,-30c-1,-8 -3,-17 -4,-21c-1,-5 -6,-23 -10,-41c-4,-18 -12,-35 -16,-38c-14,-8 -11,-65 6,-125c23,-78 33,-94 75,-118c37,-20 56,-46 42,-55c-16,-9 -120,13 -152,33c-19,11 -45,21 -57,21c-13,0 -24,8 -28,20c-8,26 -41,26 -48,0c-4,-15 7,-30 39,-59c24,-21 44,-41 44,-45c0,-11 -60,-36 -89,-36c-34,0 -101,-36 -101,-55c0,-7 -9,-24 -20,-38c-30,-37 -25,-58 25,-108c24,-24 45,-48 45,-53c0,-5 -14,-23 -31,-41c-30,-30 -33,-31 -59,-18c-39,19 -110,131 -110,172c0,17 -7,48 -16,69c-21,51 -23,145 -3,168c8,11 24,39 34,64c10,25 27,65 38,89c11,26 16,53 12,68c-7,29 -92,113 -114,113c-9,0 -28,6 -42,14c-22,11 -46,14 -81,7c-21,-4 -48,-48 -48,-80c0,-20 -7,-58 -16,-86c-8,-27 -18,-59 -21,-70c-9,-29 -10,-175 -1,-210c3,-16 12,-57 19,-90c7,-33 17,-69 23,-80c5,-11 12,-30 13,-42c3,-21 14,-40 71,-130c29,-45 19,-57 -40,-48c-50,8 -115,63 -159,136c-30,51 -55,178 -46,241c12,94 -27,178 -75,162c-12,-3 -27,1 -38,11c-15,14 -29,16 -63,11c-64,-10 -74,-26 -78,-126c-2,-47 -8,-91 -13,-98c-16,-23 -15,-124 3,-177c39,-118 92,-154 95,-66c1,34 18,31 31,-7c6,-16 15,-35 21,-43c6,-8 15,-25 19,-39c4,-14 15,-34 25,-45c9,-11 21,-28 26,-37c5,-9 35,-39 66,-66c42,-37 53,-53 45,-61c-16,-16 -22,-14 -80,25c-49,34 -146,130 -147,146c0,4 -11,19 -24,33c-14,15 -26,31 -28,37c-2,5 -23,13 -47,18c-39,7 -46,5 -76,-21c-18,-16 -41,-29 -51,-29c-24,0 -34,-8 -62,-44c-29,-38 -28,-62 8,-115c20,-29 30,-57 30,-80c0,-44 61,-195 92,-228c41,-44 51,-28 49,74c-2,91 6,116 29,88c7,-8 18,-15 25,-15c6,0 19,-8 29,-18c20,-23 111,-69 151,-77c17,-3 67,-9 111,-12c64,-4 89,-2 114,11c18,9 39,16 46,16c7,0 25,10 41,23c31,26 86,43 183,57c121,17 185,35 188,53c2,9 9,17 15,17c6,0 20,9 32,19c49,48 113,101 120,101c9,0 69,53 173,151c64,61 77,69 111,69c35,0 71,-22 71,-44c0,-4 13,-35 29,-69c27,-56 74,-107 88,-94c2,3 9,34 13,69c5,35 11,72 14,83c2,11 5,26 5,33c1,16 42,15 106,-3c56,-17 85,-46 85,-86c0,-20 38,-108 51,-119c4,-3 9,-15 13,-27c7,-21 64,-58 74,-48c3,3 6,24 7,48c3,57 30,100 59,91c31,-10 115,-55 122,-65c2,-5 -4,-16 -15,-25c-16,-14 -17,-22 -10,-42c6,-14 7,-39 3,-56c-4,-17 -8,-38 -9,-46c-2,-8 -8,-30 -15,-48c-19,-50 -42,-38 -60,32c-17,60 -44,91 -54,59c-33,-117 -46,-193 -37,-216c12,-31 6,-54 -13,-54c-18,0 -86,-42 -86,-54c0,-5 -6,-9 -13,-9c-8,0 -24,-9 -37,-20c-13,-11 -31,-20 -41,-20c-10,0 -22,-6 -26,-14c-4,-7 -30,-23 -56,-35c-26,-12 -51,-28 -54,-36c-3,-8 -11,-15 -18,-15c-8,0 -23,-13 -35,-30c-12,-16 -27,-30 -34,-30c-21,0 -66,-40 -66,-59c0,-9 -9,-24 -20,-34c-11,-9 -20,-25 -20,-35c0,-10 -5,-23 -11,-29c-8,-8 -9,-25 -4,-50c5,-21 8,-41 7,-44c-2,-9 36,-48 81,-83c20,-16 37,-36 37,-43c0,-8 -20,-33 -45,-57c-25,-25 -45,-48 -45,-53c0,-7 -64,-63 -73,-63c-2,0 -23,-18 -47,-40c-23,-22 -52,-42 -62,-46c-20,-6 -58,-39 -58,-49c0,-7 -17,-28 -44,-55c-20,-20 -20,-20 2,-50c28,-37 28,-50 -3,-86c-14,-16 -25,-32 -25,-36c0,-4 -14,-15 -31,-24c-18,-9 -56,-40 -85,-70c-29,-30 -57,-54 -63,-54c-6,0 -20,-13 -32,-29c-12,-16 -30,-32 -41,-34c-11,-3 -22,-15 -25,-26c-3,-12 -12,-21 -19,-21c-8,0 -23,-14 -33,-31c-10,-17 -28,-37 -40,-45c-11,-8 -35,-43 -51,-77c-17,-34 -37,-71 -45,-81c-8,-11 -15,-29 -15,-41c0,-12 -5,-26 -10,-31c-8,-8 -7,-14 3,-22c11,-9 19,-6 39,16c27,29 98,128 98,137c0,12 44,65 54,65c6,0 19,14 28,30c9,17 32,39 51,50c18,11 40,31 47,45c7,13 22,27 33,31c19,6 37,19 88,64c48,42 58,50 68,50c5,0 19,13 31,29c11,17 30,33 41,36c43,14 69,120 44,178c-4,11 -3,23 4,30c6,6 11,7 11,3c0,-4 19,9 42,29c23,19 66,47 95,60c29,14 56,31 60,39c4,8 25,21 46,30c22,9 41,25 44,36c3,11 13,20 23,20c28,0 54,30 80,90c13,30 30,63 38,72c12,15 10,24 -17,71c-17,29 -41,58 -54,64c-15,7 -27,23 -30,40c-5,23 2,35 36,71c23,23 46,42 53,42c6,0 19,11 28,25c9,14 26,25 37,25c11,0 36,16 56,35c20,19 44,35 55,35c10,0 27,9 39,21c18,18 24,19 44,9c13,-7 28,-23 34,-36c6,-13 17,-24 25,-24c7,0 19,-7 26,-15c7,-8 21,-15 31,-15c11,0 19,-4 19,-9c0,-4 11,-6 25,-3c14,2 25,0 25,-6c0,-6 21,-18 48,-25c26,-8 65,-31 86,-51c46,-41 52,-43 59,-17c6,23 -7,47 -45,88c-31,32 -31,53 0,53c21,0 113,-52 131,-74c10,-12 17,-13 34,-4c18,9 24,7 43,-17c12,-15 26,-25 32,-21c13,8 21,65 10,72c-4,3 -8,14 -8,25c0,19 29,27 44,12c4,-5 12,-8 18,-8c6,0 16,-9 22,-20c6,-11 16,-23 22,-27c7,-4 15,-25 19,-45c4,-21 11,-44 17,-50c7,-9 7,-17 0,-26c-15,-18 -8,-73 9,-69c24,6 39,24 39,47c0,12 6,28 14,34c31,26 28,65 -9,136c-39,76 -43,95 -17,96c53,2 88,11 100,26c19,27 14,41 -18,48c-29,6 -52,25 -30,25c12,0 63,34 101,68c14,12 48,31 74,40c27,10 50,23 52,29c6,18 -72,39 -100,26c-46,-22 -73,-29 -94,-25c-33,5 -28,15 20,37c23,10 61,32 85,48c23,15 42,25 42,22c0,-3 14,2 32,11l31,16l-24,20c-18,14 -34,18 -66,14c-46,-6 -59,9 -21,23c13,5 23,17 23,27c0,38 103,68 227,66c107,-2 131,10 71,33c-21,9 -47,21 -58,27c-11,6 -53,12 -94,14c-40,1 -78,7 -83,12c-15,15 16,32 66,33c26,1 49,6 52,11c3,4 15,8 27,8c12,0 55,18 95,40c51,29 72,46 72,60c0,13 -7,20 -20,20c-11,0 -20,4 -20,8c0,10 135,82 154,82c15,0 86,79 86,96c0,22 -24,21 -59,-3c-18,-13 -39,-23 -46,-23c-7,0 -18,-7 -25,-15c-14,-16 -60,-21 -60,-6c0,19 57,71 90,82c19,7 51,24 70,39c60,46 84,47 175,2c44,-22 133,-66 198,-97c64,-32 117,-61 117,-65c0,-4 25,-34 55,-66c51,-56 54,-62 55,-111c0,-46 4,-56 30,-79c23,-21 28,-32 23,-55c-3,-16 -1,-35 4,-41c15,-19 26,-112 24,-204c-1,-44 3,-92 8,-107c12,-30 4,-56 -31,-100c-15,-19 -21,-38 -20,-65c2,-27 -5,-49 -23,-76c-14,-20 -25,-41 -25,-45c0,-5 -7,-14 -15,-21c-9,-7 -15,-29 -15,-54c0,-37 -5,-46 -56,-91c-52,-47 -61,-63 -63,-108c-1,-9 -10,-25 -21,-34c-11,-10 -20,-21 -20,-25c0,-5 -18,-26 -40,-48c-22,-22 -39,-43 -39,-47c6,-35 -6,-64 -41,-98c-21,-22 -39,-45 -40,-51c0,-26 -42,-93 -60,-99c-11,-4 -30,-27 -42,-53c-12,-26 -30,-53 -40,-60c-10,-7 -27,-30 -37,-51c-11,-20 -27,-43 -35,-50c-9,-7 -13,-17 -10,-22c3,-5 -6,-13 -19,-18c-14,-6 -28,-14 -31,-19c-3,-5 -31,-22 -62,-38c-31,-16 -63,-39 -71,-51c-9,-13 -21,-23 -28,-23c-7,0 -27,-16 -46,-35c-19,-19 -46,-40 -61,-46c-16,-6 -28,-16 -28,-22c0,-17 -44,-77 -56,-77c-13,0 -49,-39 -57,-62c-4,-10 -11,-18 -16,-18c-5,0 -12,-8 -16,-19c-3,-10 -18,-21 -33,-24c-16,-3 -34,-17 -42,-31c-7,-14 -22,-26 -32,-26c-10,0 -43,-25 -74,-55c-38,-39 -63,-55 -82,-56c-15,0 -54,-2 -87,-4c-33,-2 -82,-4 -110,-5c-65,-2 -113,-19 -121,-43c-6,-21 10,-37 37,-37c8,0 30,-15 47,-33l33,-34l-51,-26l-50,-26l-370,-7c-246,-5 -373,-4 -382,3c-16,13 -95,16 -102,4c-3,-4 3,-16 14,-26c11,-10 20,-26 20,-37c0,-10 4,-18 9,-18c4,0 20,-10 34,-22c47,-40 91,-73 92,-68c0,3 15,-9 33,-25c39,-37 35,-56 -14,-74c-53,-19 -134,-72 -134,-88c0,-7 5,-22 12,-33c7,-10 10,-21 8,-24c-3,-2 -52,-5 -110,-7c-104,-2 -184,-17 -247,-45c-17,-8 -35,-14 -40,-13c-4,1 -21,-3 -36,-9c-16,-7 -37,-12 -48,-12c-10,0 -27,-8 -37,-17c-39,-39 -117,-47 -142,-15c-10,13 -66,50 -116,75c-44,23 -56,25 -116,18c-59,-6 -73,-12 -103,-41c-50,-48 -46,-66 15,-74c27,-4 50,-11 50,-15c0,-5 17,-16 39,-24c38,-16 55,-44 45,-72c-4,-8 -31,-16 -70,-20c-35,-4 -66,-11 -69,-15c-9,-15 37,-44 67,-42c17,1 41,-4 54,-13c13,-8 32,-15 43,-15c11,0 24,-8 29,-17c17,-32 55,-200 49,-215c-3,-8 -26,-21 -52,-28c-99,-28 -180,30 -201,142c-22,119 -64,197 -142,264c-68,58 -186,77 -239,39c-17,-13 -17,-15 5,-38c13,-14 34,-28 46,-31c12,-3 38,-25 57,-48c31,-39 34,-49 35,-113c1,-53 6,-79 23,-105c11,-19 21,-42 21,-50c0,-8 22,-42 48,-75c27,-33 51,-68 55,-77c3,-10 11,-18 17,-18c18,0 50,-34 50,-53c0,-17 -6,-18 -60,-14c-42,3 -68,10 -83,24c-12,11 -31,25 -43,31c-11,6 -32,33 -45,59c-30,61 -48,83 -67,83c-7,0 -28,7 -45,14c-134,62 -213,66 -271,16c-17,-15 -41,-32 -52,-38c-25,-13 -38,-63 -21,-75c7,-4 33,-5 58,-2c25,3 49,2 53,-2c4,-5 11,-8 14,-8c12,-1 57,-28 64,-39c4,-6 8,-23 8,-37c0,-27 53,-84 102,-110c12,-6 38,-25 56,-40c18,-16 39,-29 46,-29c14,0 30,-29 21,-38c-3,-3 -28,0 -56,6c-28,7 -74,9 -104,6c-47,-6 -54,-4 -64,15c-7,11 -19,21 -28,21c-8,0 -31,9 -50,21c-43,27 -63,19 -63,-24c0,-85 51,-164 128,-199c23,-11 48,-28 55,-39c9,-14 23,-19 55,-19c24,0 53,-5 64,-11c11,-6 50,-14 86,-17c96,-10 100,-25 26,-103c-88,-93 -156,-159 -164,-159c-4,0 -11,-15 -14,-33c-3,-19 -17,-44 -30,-56c-14,-13 -30,-36 -37,-53c-7,-16 -28,-47 -47,-68c-18,-21 -33,-41 -32,-45c0,-3 -13,-22 -29,-41c-17,-19 -31,-41 -31,-49c0,-22 -118,-105 -151,-105c-34,0 -58,-33 -37,-53c32,-29 87,-49 120,-43c126,24 158,28 158,18c0,-5 -7,-13 -16,-16c-14,-5 -14,-9 -3,-22c13,-16 56,-15 107,1c31,10 30,-18 -3,-57c-14,-16 -25,-36 -25,-43c0,-8 -11,-26 -25,-41c-14,-15 -30,-44 -35,-65c-6,-21 -15,-41 -20,-44c-6,-3 -10,-16 -10,-27c0,-11 -9,-35 -19,-52c-10,-17 -24,-58 -31,-91c-7,-33 -19,-64 -27,-70c-7,-6 -19,-29 -26,-51c-7,-23 -30,-74 -52,-113c-35,-62 -43,-71 -63,-66c-20,5 -23,3 -18,-13c8,-24 -9,-38 -57,-46c-21,-4 -48,-17 -60,-29l-21,-21l35,-14c18,-8 54,-17 79,-19c50,-4 198,21 214,37c5,5 14,10 18,10c14,0 9,-29 -7,-37c-9,-5 -12,-17 -8,-31c6,-23 6,-23 70,-24c38,0 43,-3 43,-23c0,-12 -6,-28 -14,-34c-19,-16 -40,-165 -27,-190c18,-33 14,-245 -6,-304c-12,-35 -19,-46 -21,-32c-9,44 -22,37 -22,-12c0,-58 -31,-138 -60,-153c-25,-14 -25,-26 -1,-33c12,-3 22,1 25,9c3,8 13,14 23,14c10,0 34,13 53,28c40,33 80,56 86,49c3,-2 1,-23 -5,-46c-10,-44 -9,-45 30,-55c21,-5 28,-2 32,14c3,11 13,20 24,20c10,0 32,17 50,37c27,33 32,36 39,20c3,-10 0,-37 -7,-60c-20,-60 -18,-317 4,-427c45,-235 51,-278 39,-333c-17,-78 -22,-117 -16,-117c13,0 74,53 74,65c0,6 9,20 20,30c11,10 20,23 20,29c0,6 16,28 35,48c19,20 30,38 25,40c-6,2 0,25 14,53c13,28 26,59 30,69c12,34 19,8 17,-61c0,-38 1,-84 5,-104c4,-31 9,-36 29,-33c36,3 44,11 51,49c3,19 10,35 16,35c5,0 14,14 19,30c18,50 44,39 69,-27c12,-32 34,-85 49,-118c74,-160 94,-220 115,-358c15,-96 16,-111 3,-131c-9,-12 -16,-31 -17,-42c-4,-30 11,-84 24,-84c6,0 37,31 69,68c75,88 70,81 87,130c7,24 19,46 27,50c12,7 21,57 26,141c3,48 21,49 42,1c10,-22 21,-40 26,-40c4,0 15,-23 24,-50c9,-28 20,-50 25,-50c19,0 31,66 33,179c0,66 3,121 7,121c3,0 25,-39 50,-87c24,-49 50,-101 59,-118c8,-16 25,-38 38,-48c13,-10 23,-23 23,-29c0,-6 12,-27 26,-46c24,-31 25,-38 16,-70c-16,-53 -30,-128 -37,-195c-3,-32 -14,-77 -25,-100c-11,-22 -20,-47 -20,-56c0,-21 -38,-97 -56,-111c-7,-7 -14,-19 -14,-27c0,-8 -8,-27 -18,-41c-38,-55 -38,-55 7,-49c23,2 50,12 60,21c9,9 22,16 27,16c5,0 17,9 27,20c9,11 24,20 32,20c9,0 21,11 27,25c6,14 19,25 28,25c10,0 20,9 23,21c3,11 15,23 26,26c14,3 21,13 21,29c0,13 9,28 19,34c17,9 20,6 23,-18c3,-30 -31,-173 -51,-210c-10,-18 -9,-23 3,-28c16,-6 73,39 81,65c2,9 14,22 25,29c18,11 22,9 32,-13c8,-18 8,-31 0,-48c-6,-12 -13,-89 -16,-172c-5,-153 -24,-246 -61,-298c-8,-12 -15,-34 -15,-49c0,-14 -5,-39 -10,-54c-13,-34 -11,-36 28,-25c33,10 117,89 126,119c7,21 54,72 66,72c17,0 11,-28 -7,-40c-15,-10 -15,-11 -1,-6c24,7 45,-23 52,-78c3,-27 13,-60 21,-72c12,-19 24,-149 15,-179c-13,-49 26,-81 61,-49c10,9 19,21 19,26c0,4 14,27 30,50c17,22 30,45 30,50c0,4 13,27 30,50c18,25 30,53 30,73c0,52 44,77 56,31c3,-14 12,-27 20,-30c8,-3 14,-15 14,-26c0,-17 34,-112 46,-128c1,-2 12,2 24,8c18,10 21,17 16,45c-4,21 -2,36 5,41c15,9 39,-22 39,-49c0,-10 11,-32 25,-49c13,-16 29,-46 35,-67c5,-21 20,-51 32,-67c19,-23 23,-41 23,-116c1,-95 8,-115 26,-75c6,13 22,31 35,38c14,7 29,28 36,51c6,21 17,38 23,38c19,0 27,-43 31,-169c2,-63 8,-119 13,-124c12,-12 61,28 61,49c0,7 4,14 8,16c11,4 52,106 52,129c0,34 18,29 32,-8c8,-25 13,-83 12,-170c-1,-118 1,-133 16,-133c20,0 62,44 81,84c34,72 54,14 24,-69c-8,-22 -15,-50 -15,-63c0,-31 -55,-134 -80,-150c-11,-7 -20,-19 -20,-27c0,-15 -74,-75 -92,-75c-16,0 -78,-32 -78,-40c0,-15 60,-32 90,-26c17,3 54,17 84,31c29,14 60,25 68,25c8,0 42,27 75,61c33,34 63,57 66,52c3,-5 -5,-31 -19,-58c-29,-61 -30,-75 -4,-75c11,0 20,4 20,8c0,5 18,17 40,27c54,24 120,87 120,113c0,12 4,22 10,22c10,0 60,99 60,119c0,6 4,19 9,29c31,56 42,126 40,249c-1,71 -6,134 -12,141c-5,7 -7,16 -3,19c10,10 39,-10 52,-35c17,-35 47,-63 56,-54c5,5 9,33 9,63c2,66 8,78 23,47c6,-12 18,-23 26,-23c43,0 52,135 12,178c-12,13 -22,28 -22,34c0,6 -15,38 -34,71c-25,45 -31,63 -22,72c8,8 7,10 -6,5c-17,-7 -108,71 -108,93c0,6 -10,14 -22,18c-29,8 -59,34 -53,45c7,10 63,3 79,-10c20,-17 138,-81 148,-81c6,0 26,-13 45,-30c33,-30 83,-41 83,-19c0,10 -37,58 -88,114c-10,11 -26,36 -35,55c-10,19 -22,42 -27,50c-14,22 -36,78 -39,100c0,6 -6,10 -12,10c-5,0 -7,-4 -4,-10c15,-25 -12,-6 -54,38c-54,55 -96,86 -131,95c-40,11 -56,25 -44,37c7,7 26,6 65,-6c76,-23 129,-46 129,-56c0,-4 8,-8 19,-8c10,0 35,-7 54,-15c81,-34 76,-14 -22,82c-87,86 -140,131 -180,152c-14,7 -30,19 -36,25c-5,7 -25,16 -44,22c-19,5 -39,18 -45,29c-6,11 -15,23 -20,27c-5,3 -17,38 -27,76c-10,39 -30,97 -45,129c-40,83 -40,93 -3,93c22,0 32,-5 36,-20c6,-24 12,-24 38,-5c14,12 34,14 80,9c49,-5 64,-3 77,10c18,18 54,21 63,6c3,-5 15,-10 25,-10c10,0 25,-7 34,-15c8,-8 24,-15 36,-15c11,0 37,-7 57,-15c20,-9 43,-13 52,-10c9,2 27,-1 41,-8c34,-17 265,-23 275,-6c5,6 -12,31 -41,59c-88,86 -114,117 -114,134c0,22 40,21 88,-2c41,-20 82,-18 82,4c0,8 -18,32 -39,53c-22,22 -47,52 -57,66c-15,23 -15,28 -3,36c8,5 23,6 34,3c32,-10 153,-6 175,6c37,20 258,35 505,35c169,-1 244,3 252,11c16,16 2,66 -23,79c-11,6 -35,22 -54,37c-20,15 -53,35 -75,45c-22,10 -51,26 -65,35c-14,10 -58,24 -99,33c-119,25 -120,34 -3,74c46,16 86,31 88,34c3,3 0,14 -7,26c-7,11 -11,22 -9,23c38,27 120,70 141,75c16,3 34,12 40,19c6,8 17,14 24,14c8,0 26,11 42,24c15,13 42,27 60,30c17,4 37,14 44,23c7,8 22,19 34,24c20,9 38,20 87,52c14,9 39,18 55,19c15,1 34,8 41,15c7,7 22,13 32,13c17,0 96,32 150,59c26,14 16,34 -20,44c-19,5 -38,13 -41,19c-4,6 -69,11 -158,11c-103,2 -151,6 -151,13c0,6 10,24 21,39c12,15 23,38 25,52c1,14 12,32 24,40c32,22 39,52 22,87c-12,22 -12,31 -3,34c13,4 51,74 51,95c0,19 24,67 33,67c5,0 5,4 2,10c-3,5 0,24 8,42c36,84 47,117 51,163c3,28 15,68 26,90c11,21 20,49 20,62c0,12 8,30 18,40c11,10 22,26 25,36c4,9 13,17 21,17c14,0 36,28 36,46c0,16 -120,-5 -146,-25c-15,-12 -35,-21 -44,-21c-10,0 -32,-14 -50,-30c-18,-16 -36,-30 -41,-30c-5,0 -16,-11 -25,-25c-24,-37 -48,-33 -40,7c6,33 9,73 7,95c-1,6 -11,13 -23,15c-23,3 -23,6 -25,153c-1,83 -6,175 -11,205c-6,30 -9,96 -8,145c1,76 6,99 29,146c28,57 35,103 17,114c-5,3 -10,3 -10,-2c0,-12 -59,-43 -81,-43c-10,0 -19,-6 -19,-14c0,-8 -27,-36 -60,-61c-36,-28 -60,-54 -60,-65c0,-11 -8,-24 -17,-29c-21,-11 -43,-55 -68,-134c-25,-79 -36,-93 -61,-77c-10,6 -30,30 -44,52c-14,23 -29,46 -35,52c-23,26 -55,76 -55,86c0,5 -4,10 -10,10c-5,0 -10,7 -10,16c0,19 -104,124 -143,143c-15,8 -45,29 -65,46c-25,21 -48,32 -72,32c-48,1 -175,76 -203,119c-12,19 -26,34 -31,34c-5,0 -14,8 -21,17c-11,15 -15,15 -29,4c-10,-9 -13,-18 -7,-25c5,-6 11,-46 13,-88c3,-43 10,-84 17,-92c7,-8 11,-29 9,-47l-3,-32l-31,26c-43,36 -64,35 -64,-3c0,-16 -2,-30 -5,-30c-12,0 -101,33 -105,40c-3,4 -23,13 -45,20c-22,7 -47,18 -55,25c-8,7 -40,20 -70,30c-30,10 -59,21 -65,26c-5,5 -17,9 -26,9c-10,0 -39,18 -64,40c-25,22 -51,40 -57,40c-5,0 -21,9 -35,19c-24,20 -53,19 -53,-2c0,-12 46,-141 61,-169c5,-10 9,-22 9,-28c0,-16 -40,-12 -46,5c-3,8 -14,17 -25,20c-10,4 -19,12 -19,20c0,17 -53,27 -62,12c-4,-7 -5,-19 -2,-27c4,-8 12,-33 18,-55c6,-22 18,-45 26,-52c8,-7 13,-13 10,-13c-42,-8 -568,-7 -581,1c-29,15 -112,16 -117,1c-7,-21 63,-78 143,-117c41,-20 75,-40 75,-45c0,-5 -12,-12 -27,-16c-16,-3 -41,-10 -57,-15c-16,-5 -50,-9 -75,-9c-55,0 -119,-34 -86,-46c28,-9 137,-54 155,-64c22,-11 18,-34 -5,-38c-46,-8 -185,-54 -190,-63c-4,-5 -16,-9 -28,-9c-13,0 -40,-9 -62,-20c-22,-11 -48,-20 -58,-20c-10,0 -33,-6 -50,-14c-48,-21 -179,-27 -212,-10c-38,20 -54,18 -66,-10c-8,-18 -7,-30 5,-54c9,-17 16,-40 16,-51c0,-13 15,-29 45,-47c25,-14 45,-30 45,-35c0,-6 15,-16 33,-24c49,-20 61,-38 39,-57c-9,-9 -27,-19 -38,-22c-23,-7 -39,-56 -22,-67c5,-3 -24,-40 -66,-82c-42,-42 -76,-80 -76,-84c0,-4 -16,-25 -35,-47c-19,-21 -35,-41 -35,-45c0,-3 -4,-12 -9,-20c-15,-24 -127,79 -135,124c-5,23 -20,45 -46,68c-33,28 -40,40 -40,69c0,27 -5,37 -19,41c-15,3 -20,18 -26,66c-5,41 -13,65 -25,74c-13,9 -18,30 -22,79c-3,54 -9,73 -28,93c-21,22 -22,29 -12,45c16,26 15,86 -3,135c-9,25 -14,81 -15,152c0,112 0,112 41,190c25,49 38,87 36,102c-3,14 7,46 24,78c16,30 29,63 29,72c0,21 47,114 79,158c20,26 22,38 17,76c-6,38 -4,47 13,59c11,8 25,26 32,41c7,15 16,27 20,27c5,0 12,15 17,32c5,21 15,34 28,36c25,5 73,58 81,91c10,41 42,88 63,94c11,3 24,16 29,30c5,14 14,26 20,28c6,2 12,14 14,26c4,26 45,73 63,73c7,0 21,15 33,33c22,36 80,83 97,79c6,-1 32,18 58,43c27,25 57,45 67,45c11,0 22,7 25,15c4,8 14,15 24,15c18,0 37,18 55,52c5,11 43,37 83,59c40,21 82,48 92,61c10,13 47,36 83,53c37,17 68,37 70,47c4,13 15,18 40,18c19,0 65,15 106,36c46,23 78,33 91,29c13,-4 30,1 46,14c36,28 50,26 91,-9c23,-21 41,-29 56,-25c49,12 176,21 193,14c35,-14 99,-9 134,9l34,19l42,-29c44,-30 101,-37 122,-16c7,7 40,15 74,19c124,15 207,38 263,75c30,20 61,34 69,31c8,-3 19,-23 26,-44c15,-45 44,-97 79,-138c14,-17 35,-43 46,-58c11,-15 25,-27 32,-27c6,0 18,-9 25,-19c8,-11 27,-21 42,-24c15,-2 36,-13 45,-24c9,-11 26,-26 39,-32c12,-7 22,-18 22,-26c0,-17 -41,-82 -71,-112c-33,-32 -19,-53 35,-53c25,0 48,5 51,10c4,6 24,22 46,35c22,15 48,43 60,67c12,24 25,45 28,48c4,3 15,32 26,65c10,33 24,65 31,70c12,10 14,75 3,75c-4,0 -9,8 -11,18c-4,12 -22,23 -52,32c-26,7 -49,17 -52,21c-3,5 -21,9 -40,9c-45,0 -103,30 -131,69c-52,70 -7,85 50,16c28,-33 45,-45 65,-45c15,0 45,-9 68,-19c23,-11 53,-17 68,-14c17,4 33,-1 45,-11c11,-10 22,-13 25,-8c3,6 29,13 56,17c27,4 53,11 56,16c3,5 9,7 14,4c5,-3 27,-1 48,5c22,5 61,12 87,14c26,3 55,11 64,19c33,29 51,28 92,-6c21,-17 39,-38 39,-45c0,-8 15,-35 32,-60c18,-26 34,-49 35,-51c1,-2 9,2 18,9c18,15 21,134 3,177c-12,31 -14,39 -16,68c-1,11 -38,54 -82,96c-77,73 -82,76 -131,78c-37,1 -62,-5 -86,-19c-58,-34 -144,-60 -218,-67c-126,-11 -122,-11 -199,28c-50,25 -68,51 -47,72c7,7 14,7 24,-1c8,-7 17,-9 21,-5c3,4 61,8 129,9c102,1 136,6 207,29c55,18 92,36 103,52c10,12 27,23 38,23c11,0 40,20 64,45c25,24 58,51 74,60c16,8 32,24 36,35c3,11 10,20 15,20c5,0 18,9 29,21c27,30 83,40 184,32c84,-6 87,-5 87,15c0,12 -9,26 -20,32c-11,6 -20,17 -20,25c0,9 -12,23 -28,33c-15,9 -42,28 -61,42c-23,18 -46,25 -79,26c-26,1 -63,2 -82,3c-61,4 -160,-30 -160,-54c0,-8 -4,-15 -10,-15c-5,0 -21,-22 -35,-50c-14,-27 -34,-54 -45,-60c-11,-6 -20,-16 -20,-23c0,-19 -60,-55 -144,-87c-89,-35 -125,-37 -181,-10c-22,10 -43,16 -48,13c-12,-7 -37,17 -37,37c0,10 -6,20 -12,23c-18,6 19,47 42,47c15,0 47,25 116,90c12,11 26,20 33,20c6,0 14,7 17,15c3,8 15,17 27,21c19,6 55,43 87,89c8,12 27,40 41,61c15,22 36,48 47,60c11,11 28,36 37,55c24,48 45,69 67,69c11,0 22,9 25,20c6,22 24,28 93,32c28,2 45,8 45,16c0,6 -3,11 -7,10c-4,-2 -14,6 -22,17c-9,11 -16,16 -16,11c0,-5 -7,-3 -15,4c-8,6 -19,9 -25,5c-5,-3 -10,0 -10,7c0,40 -145,46 -179,7c-8,-11 -21,-19 -27,-19c-6,0 -28,-14 -50,-30c-32,-26 -45,-30 -87,-29c-56,3 -72,-11 -83,-70c-4,-20 -10,-40 -14,-46c-4,-5 -10,-26 -14,-45c-4,-25 -22,-51 -59,-87c-72,-71 -146,-88 -83,-20c26,29 56,83 56,103c0,7 7,17 15,21c21,12 28,238 8,255c-17,13 -2,42 44,86c42,40 52,40 60,2c3,-17 10,-33 15,-36c12,-8 56,33 64,60c9,29 56,95 93,131c17,17 31,36 31,43c0,6 6,12 13,12c7,0 26,12 43,28c17,15 41,34 54,42c109,72 185,137 194,168c4,11 18,27 31,36c16,10 25,26 25,41c0,14 5,25 11,25c5,0 15,13 20,29c7,20 17,29 33,28c32,0 73,29 85,61c11,27 18,40 55,95l19,29l23,-28c13,-15 24,-33 24,-39c0,-7 6,-18 14,-24c8,-7 17,-25 21,-40c3,-16 15,-38 25,-49c11,-12 20,-26 20,-32c0,-16 61,-80 76,-80c7,0 28,-13 46,-29c20,-16 50,-31 75,-35c42,-6 43,-6 39,21c-5,36 -16,63 -26,63c-5,0 -11,14 -15,30c-4,18 -11,27 -18,23c-6,-4 -8,0 -4,10c3,9 2,19 -4,23c-7,4 -8,58 -3,157c7,158 -2,242 -31,300c-8,16 -15,43 -15,59c0,18 -5,28 -15,28c-8,0 -15,9 -15,19c0,10 -13,46 -29,78c-17,33 -40,88 -52,124c-12,35 -26,70 -32,77c-5,6 -6,12 -2,12c4,0 3,6 -3,13c-5,6 -13,33 -17,60c-7,43 -6,47 14,47c12,0 50,-29 93,-70c101,-98 109,-105 145,-119c17,-7 34,-19 37,-27c3,-8 16,-14 30,-14c14,0 28,-4 31,-10c8,-14 58,-13 72,1c14,14 2,51 -31,94c-13,17 -33,55 -46,85c-12,30 -28,67 -36,81c-7,14 -16,45 -20,68c-4,23 -13,49 -21,56c-7,8 -12,18 -11,22c3,14 -25,98 -36,105c-5,3 -11,21 -12,39c-1,17 -7,41 -13,53c-35,72 -68,156 -61,156c5,0 15,3 24,6c12,4 21,-6 35,-37c45,-102 70,-98 72,10c1,40 -3,76 -8,80c-15,9 -26,68 -15,75c6,3 22,0 36,-8c39,-20 214,-20 244,0c12,8 20,19 17,24c-4,6 -1,10 4,10c12,0 -25,40 -36,40c-5,0 -33,23 -63,50c-30,27 -59,53 -65,58c-5,5 -19,21 -30,37c-11,15 -32,41 -47,58c-16,18 -28,35 -28,38c0,11 -158,166 -194,191c-17,12 -33,25 -36,28c-3,3 -17,11 -32,17c-16,7 -28,16 -28,20c0,18 19,36 38,38c64,4 202,159 218,246c4,19 11,39 16,45c5,7 8,16 7,20c-1,5 3,22 9,37c28,67 8,119 -60,154c-51,26 -89,31 -152,19c-32,-6 -38,-5 -33,8c3,8 -3,26 -14,40c-19,24 -21,24 -40,8c-11,-9 -27,-18 -37,-18c-9,-1 -33,-5 -53,-9c-34,-6 -37,-5 -42,22c-4,20 1,39 19,65c25,39 31,73 14,83c-5,3 -10,14 -10,24c0,10 -12,28 -26,42c-22,21 -36,24 -105,25l-80,1l-31,-37c-16,-21 -38,-40 -48,-43c-13,-3 -19,-19 -24,-63c-3,-33 -7,-65 -8,-71c-2,-16 3,-17 -108,7c-51,11 -109,20 -127,20l-34,0l3,78c2,70 4,79 30,102c15,13 28,35 28,47c0,13 5,23 10,23c6,0 10,7 10,17c0,15 -1,15 -18,0c-10,-10 -26,-17 -35,-17c-10,0 -26,-5 -37,-12c-10,-7 -23,-8 -27,-4c-4,5 -3,11 3,13c6,2 28,19 48,38c21,19 46,37 57,40c15,5 17,10 9,25c-15,27 -44,33 -85,16c-24,-11 -43,-12 -59,-6c-13,5 -49,6 -80,3c-31,-3 -75,-1 -98,6c-24,6 -93,13 -155,15c-61,2 -116,7 -123,11c-6,4 -32,2 -56,-5c-25,-7 -48,-9 -52,-5c-4,4 16,28 43,53c28,26 54,55 57,64c10,26 -25,32 -64,11c-27,-14 -55,-17 -150,-16c-65,1 -126,7 -137,12c-11,6 -44,11 -75,11c-30,0 -57,4 -61,9c-7,13 41,58 85,79c19,9 62,42 95,74c32,32 62,58 66,58c3,0 19,19 35,42c16,23 49,63 74,89c25,26 44,52 42,58c-2,6 1,11 7,11c6,0 26,32 45,70c18,39 38,76 43,83c13,18 30,75 38,127c4,25 12,48 17,51c6,4 13,28 15,53l6,47l-84,-3c-82,-3 -84,-4 -81,-27c4,-29 -15,-77 -45,-114c-13,-16 -23,-37 -23,-48c0,-11 -7,-22 -15,-25c-8,-4 -15,-12 -15,-19c0,-6 -8,-19 -17,-28c-10,-9 -27,-33 -38,-54c-11,-21 -28,-44 -37,-51c-10,-7 -18,-21 -18,-31c0,-22 -29,-36 -43,-22c-5,5 -12,37 -16,71c-8,65 -19,80 -62,80c-28,0 -46,-31 -84,-148c-12,-34 -34,-77 -49,-95c-16,-17 -38,-51 -48,-74c-10,-24 -23,-43 -29,-43c-5,0 -19,-15 -30,-34c-26,-45 -49,-53 -71,-26c-12,15 -16,30 -11,49c5,23 4,24 -9,13c-9,-7 -29,-12 -44,-10c-32,2 -74,-17 -74,-34c0,-11 -6,-18 -78,-93c-39,-41 -54,-52 -107,-81c-16,-9 -38,-25 -48,-35c-10,-11 -26,-19 -37,-19c-10,0 -22,-4 -25,-10c-3,-5 -14,-10 -23,-10c-9,0 -28,-7 -42,-15c-53,-30 -72,-36 -85,-25c-10,9 -12,7 -9,-7c4,-14 -1,-19 -23,-21c-15,-1 -34,-10 -40,-19c-7,-9 -13,-14 -13,-10c0,4 -15,1 -34,-7c-39,-16 -96,-64 -96,-81c0,-17 -21,-34 -36,-28c-16,6 -7,31 23,63c59,63 68,71 82,68c10,-2 20,8 26,27c6,18 23,36 41,45c16,8 46,27 66,43c19,15 40,27 45,27c6,0 16,6 22,14c7,8 24,17 39,21c26,6 126,75 147,100c6,7 24,21 41,31c34,21 112,84 156,127c16,15 33,27 38,27c6,0 10,6 10,13c0,13 56,67 71,67c5,0 15,12 23,28c8,15 23,36 35,46c12,11 21,24 21,31c0,7 22,37 50,69c30,35 53,72 60,99c13,50 29,85 50,111c8,10 15,31 15,47l0,29l-75,0c-74,0 -75,-1 -96,-33c-40,-61 -84,-144 -84,-159c0,-9 -18,-33 -40,-54c-22,-22 -40,-42 -40,-46c0,-12 -113,-127 -120,-123c-8,5 4,78 18,116c35,85 54,174 47,216c-10,71 -22,83 -77,83c-27,0 -49,-1 -49,-2zm2285,-1487c3,-5 -1,-11 -9,-15c-9,-3 -12,-12 -9,-21c4,-9 -6,-41 -21,-71c-24,-48 -29,-52 -40,-38c-7,11 -19,15 -29,11c-19,-8 -12,-27 10,-27c34,0 10,-18 -28,-22c-48,-5 -98,10 -98,29c0,15 51,43 78,43c11,0 22,7 25,15c4,8 22,21 42,29c20,9 34,20 30,25c-3,6 0,19 7,31c13,21 33,26 42,11zm-1911,-7041c33,-6 65,-9 73,-6c7,3 19,-3 26,-13c7,-10 26,-26 41,-36c15,-10 34,-30 42,-46c9,-17 31,-33 60,-44c30,-12 45,-24 45,-35c0,-10 12,-25 26,-35c23,-15 26,-22 21,-56c-4,-33 -1,-41 20,-57c35,-26 33,-69 -5,-123c-18,-24 -38,-65 -46,-91c-8,-26 -32,-69 -53,-95c-22,-27 -42,-55 -46,-65c-6,-16 -63,-35 -75,-24c-3,4 -11,-6 -18,-21c-7,-18 -29,-37 -60,-52c-27,-13 -65,-32 -85,-41c-19,-10 -53,-21 -75,-25c-21,-4 -52,-16 -69,-28c-17,-12 -56,-25 -90,-29c-130,-18 -242,-29 -280,-29c-22,0 -56,0 -75,0c-19,0 -55,5 -80,10c-25,6 -85,16 -135,22c-49,7 -103,21 -120,31c-16,10 -38,18 -48,18c-9,0 -25,4 -35,9c-9,6 -33,12 -53,16c-20,3 -44,14 -53,24c-16,18 -15,22 20,77c21,33 41,61 46,62c4,2 8,10 8,18c0,8 17,31 39,52c21,20 41,47 45,59c4,12 29,41 57,63c34,29 49,49 49,66c0,13 5,24 10,24c6,0 15,11 20,24c4,13 20,26 34,30c24,6 78,50 155,127c20,19 43,40 51,45c9,5 23,21 32,36c10,15 31,29 48,33c17,4 34,13 37,20c2,8 21,19 41,26c19,6 49,20 66,29c17,10 71,23 121,30c49,6 91,13 93,15c7,6 117,-3 175,-15z" id="svg_51" fill="#f8c962" stroke="#f2d560"/>
    <path d="m270919.384831,-161809.440218c0,-11 3,-14 6,-6c3,7 2,16 -1,19c-3,4 -6,-2 -5,-13z" id="svg_52" fill="#f8c962" stroke="#f2d560"/>
    <path d="m271413.384831,-161993.440218c-3,-5 -1,-10 4,-10c6,0 11,5 11,10c0,6 -2,10 -4,10c-3,0 -8,-4 -11,-10z" id="svg_53" fill="#f8c962" stroke="#f2d560"/>
    <path d="m271188.384831,-162233.440218c0,-5 5,-10 11,-10c5,0 7,5 4,10c-3,6 -8,10 -11,10c-2,0 -4,-4 -4,-10z" id="svg_54" fill="#f8c962" stroke="#f2d560"/>
    <path d="m271058.384831,-162353.440218c0,-5 5,-10 10,-10c6,0 10,5 10,10c0,6 -4,10 -10,10c-5,0 -10,-4 -10,-10z" id="svg_55" fill="#f8c962" stroke="#f2d560"/>
    <path d="m270733.384831,-162563.440218c-3,-5 -2,-10 4,-10c5,0 13,5 16,10c3,6 2,10 -4,10c-5,0 -13,-4 -16,-10z" id="svg_56" fill="#f8c962" stroke="#f2d560"/>
    <path d="m271133.384831,-165933.440218c-3,-5 -1,-10 4,-10c6,0 11,5 11,10c0,6 -2,10 -4,10c-3,0 -8,-4 -11,-10z" id="svg_57" fill="#f8c962" stroke="#f2d560"/>
    <path d="m272608.384831,-166304.440218c0,-5 5,-7 10,-4c6,3 10,8 10,11c0,2 -4,4 -10,4c-5,0 -10,-5 -10,-11z" id="svg_58" fill="#f8c962" stroke="#f2d560"/>
    <path d="m271248.384831,-169333.440218c0,-5 5,-10 10,-10c6,0 10,5 10,10c0,6 -4,10 -10,10c-5,0 -10,-4 -10,-10z" id="svg_59" fill="#f8c962" stroke="#f2d560"/>
    <path d="m271528.384831,-169377.440218c0,-8 7,-16 15,-20c17,-6 18,-4 9,18c-8,20 -24,21 -24,2z" id="svg_60" fill="#f8c962" stroke="#f2d560"/>
    <path d="m270128.384831,-169523.440218c0,-5 5,-10 10,-10c6,0 10,5 10,10c0,6 -4,10 -10,10c-5,0 -10,-4 -10,-10z" id="svg_61" fill="#f8c962" stroke="#f2d560"/>
    <path d="m270128.384831,-169633.440218c0,-5 5,-10 10,-10c6,0 10,5 10,10c0,6 -4,10 -10,10c-5,0 -10,-4 -10,-10z" id="svg_62" fill="#f8c962" stroke="#f2d560"/>
    <path d="m269253.384831,-170163.440218c-3,-5 1,-10 9,-10c9,0 16,5 16,10c0,6 -4,10 -9,10c-6,0 -13,-4 -16,-10z" id="svg_63" fill="#f8c962" stroke="#f2d560"/>
    <path d="m270956.384831,-172230.440218c6,-2 18,-2 25,0c6,3 1,5 -13,5c-14,0 -19,-2 -12,-5z" id="svg_64" fill="#f8c962" stroke="#f2d560"/>
    <path d="m271223.384831,-172853.440218c3,-5 8,-10 11,-10c2,0 4,5 4,10c0,6 -5,10 -11,10c-5,0 -7,-4 -4,-10z" id="svg_65" fill="#f8c962" stroke="#f2d560"/>
    <path d="m271448.384831,-173094.440218c0,-5 5,-7 10,-4c6,3 10,8 10,11c0,2 -4,4 -10,4c-5,0 -10,-5 -10,-11z" id="svg_66" fill="#f8c962" stroke="#f2d560"/>
    <path d="m271140.384831,-173145.440218c5,-15 28,-23 28,-10c0,5 -7,13 -16,16c-10,4 -14,1 -12,-6z" id="svg_67" fill="#f8c962" stroke="#f2d560"/>
    <path d="m271068.384831,-174163.440218c0,-19 3,-21 12,-12c9,9 9,15 0,24c-9,9 -12,7 -12,-12z" id="svg_68" fill="#f8c962" stroke="#f2d560"/>
   </g>
  </g>
 </g>
</svg>
